<?xml version="1.0" encoding="UTF-8" standalone="no"?>
<!-- Created with Inkscape (http://www.inkscape.org/) -->

<svg
   xmlns:dc="http://purl.org/dc/elements/1.1/"
   xmlns:cc="http://creativecommons.org/ns#"
   xmlns:rdf="http://www.w3.org/1999/02/22-rdf-syntax-ns#"
   xmlns:svg="http://www.w3.org/2000/svg"
   xmlns="http://www.w3.org/2000/svg"
   xmlns:sodipodi="http://sodipodi.sourceforge.net/DTD/sodipodi-0.dtd"
   xmlns:inkscape="http://www.inkscape.org/namespaces/inkscape"
   width="41.671875mm"
   height="71.014168mm"
   viewBox="0 0 41.671876 71.014159"
   version="1.1"
   id="svg8782"
   inkscape:version="0.92.3 (2405546, 2018-03-11)"
   sodipodi:docname="caisson.svg">
  <defs
     id="defs8776" />
  <sodipodi:namedview
     id="base"
     pagecolor="#ffffff"
     bordercolor="#666666"
     borderopacity="1.0"
     inkscape:pageopacity="0.0"
     inkscape:pageshadow="2"
     inkscape:zoom="0.35"
     inkscape:cx="843.66488"
     inkscape:cy="-272.75283"
     inkscape:document-units="mm"
     inkscape:current-layer="layer1"
     showgrid="false"
     fit-margin-top="0"
     fit-margin-left="0"
     fit-margin-right="0"
     fit-margin-bottom="0"
     inkscape:window-width="1920"
     inkscape:window-height="1017"
     inkscape:window-x="-4"
     inkscape:window-y="-4"
     inkscape:window-maximized="1" />
  <metadata
     id="metadata8779">
    <rdf:RDF>
      <cc:Work
         rdf:about="">
        <dc:format>image/svg+xml</dc:format>
        <dc:type
           rdf:resource="http://purl.org/dc/dcmitype/StillImage" />
        <dc:title></dc:title>
      </cc:Work>
    </rdf:RDF>
  </metadata>
  <g
     inkscape:label="Calque 1"
     inkscape:groupmode="layer"
     id="layer1"
     transform="translate(117.38634,-5.6533248)">
    <g
       transform="matrix(0.26458333,0,0,0.26458333,-284.12675,-141.40209)"
       id="g10716">
      <g
         id="g10694">
        <path
           id="path10676"
           d="M 766.1,812.5 H 651.8 c -11.9,0 -21.6,-9.7 -21.6,-21.6 V 577.4 c 0,-11.9 9.7,-21.6 21.6,-21.6 h 114.3 c 11.9,0 21.6,9.7 21.6,21.6 V 791 c 0,11.9 -9.6,21.5 -21.6,21.5 z"
           inkscape:connector-curvature="0"
           style="fill:#595e80" />
        <path
           id="path10678"
           d="M 742.8,629 A 33.799999,33.799999 0 0 1 709,662.8 33.799999,33.799999 0 0 1 675.2,629 33.799999,33.799999 0 0 1 709,595.2 33.799999,33.799999 0 0 1 742.8,629 Z"
           inkscape:connector-curvature="0"
           style="fill:#323e50" />
        <path
           id="path10680"
           d="m 756.6,740.20001 a 47.599998,47.599998 0 0 1 -47.6,47.6 47.599998,47.599998 0 0 1 -47.6,-47.6 47.599998,47.599998 0 0 1 47.6,-47.6 47.599998,47.599998 0 0 1 47.6,47.6 z"
           inkscape:connector-curvature="0"
           style="fill:#323e50" />
        <path
           id="path10682"
           d="m 733.6,740.20001 a 24.6,24.6 0 0 1 -24.6,24.6 24.6,24.6 0 0 1 -24.6,-24.6 24.6,24.6 0 0 1 24.6,-24.6 24.6,24.6 0 0 1 24.6,24.6 z"
           inkscape:connector-curvature="0"
           style="fill:#f6f4d6" />
        <path
           id="path10684"
           d="m 727,629 a 18,18 0 0 1 -18,18 18,18 0 0 1 -18,-18 18,18 0 0 1 18,-18 18,18 0 0 1 18,18 z"
           inkscape:connector-curvature="0"
           style="fill:#f6f4d6" />
        <path
           id="path10686"
           d="m 688.00002,713.29999 a 3.6,3.6 0 0 1 -3.6,3.6 3.6,3.6 0 0 1 -3.6,-3.6 3.6,3.6 0 0 1 3.6,-3.6 3.6,3.6 0 0 1 3.6,3.6 z"
           inkscape:connector-curvature="0"
           style="fill:#f6f4d6" />
        <path
           id="path10688"
           d="m 737.19997,713.29999 a 3.6,3.6 0 0 1 -3.59999,3.6 3.6,3.6 0 0 1 -3.6,-3.6 3.6,3.6 0 0 1 3.6,-3.6 3.6,3.6 0 0 1 3.59999,3.6 z"
           inkscape:connector-curvature="0"
           style="fill:#f6f4d6" />
        <path
           id="path10690"
           d="m 688.00002,768.40002 a 3.6,3.6 0 0 1 -3.6,3.6 3.6,3.6 0 0 1 -3.6,-3.6 3.6,3.6 0 0 1 3.6,-3.6 3.6,3.6 0 0 1 3.6,3.6 z"
           inkscape:connector-curvature="0"
           style="fill:#f6f4d6" />
        <path
           id="path10692"
           d="m 737.19997,768.40002 a 3.6,3.6 0 0 1 -3.59999,3.6 3.6,3.6 0 0 1 -3.6,-3.6 3.6,3.6 0 0 1 3.6,-3.6 3.6,3.6 0 0 1 3.59999,3.6 z"
           inkscape:connector-curvature="0"
           style="fill:#f6f4d6" />
      </g>
      <g
         id="g10708">
        <g
           id="g10700">
          <path
             id="path10696"
             d="m 656,574.90002 a 6.5,6.5 0 0 1 -6.5,6.5 6.5,6.5 0 0 1 -6.5,-6.5 6.5,6.5 0 0 1 6.5,-6.5 6.5,6.5 0 0 1 6.5,6.5 z"
             inkscape:connector-curvature="0"
             style="fill:#323e50" />
          <path
             id="path10698"
             d="m 775,574.90002 a 6.5,6.5 0 0 1 -6.5,6.5 6.5,6.5 0 0 1 -6.5,-6.5 6.5,6.5 0 0 1 6.5,-6.5 6.5,6.5 0 0 1 6.5,6.5 z"
             inkscape:connector-curvature="0"
             style="fill:#323e50" />
        </g>
        <g
           id="g10706">
          <path
             id="path10702"
             d="m 656,793.5 a 6.5,6.5 0 0 1 -6.5,6.5 6.5,6.5 0 0 1 -6.5,-6.5 6.5,6.5 0 0 1 6.5,-6.5 6.5,6.5 0 0 1 6.5,6.5 z"
             inkscape:connector-curvature="0"
             style="fill:#323e50" />
          <path
             id="path10704"
             d="m 775,793.5 a 6.5,6.5 0 0 1 -6.5,6.5 6.5,6.5 0 0 1 -6.5,-6.5 6.5,6.5 0 0 1 6.5,-6.5 6.5,6.5 0 0 1 6.5,6.5 z"
             inkscape:connector-curvature="0"
             style="fill:#323e50" />
        </g>
      </g>
      <g
         id="g10714">
        <path
           id="path10710"
           d="m 665.8,824.2 h -9.2 c -1.7,0 -3.2,-1.2 -3.6,-2.8 l -2.3,-8.8 h 21 l -2.3,8.8 c -0.4,1.6 -1.9,2.8 -3.6,2.8 z"
           inkscape:connector-curvature="0"
           style="fill:#323e50" />
        <path
           id="path10712"
           d="m 761.4,824.2 h -9.2 c -1.7,0 -3.2,-1.2 -3.6,-2.8 l -2.3,-8.8 h 21 l -2.3,8.8 c -0.4,1.6 -1.9,2.8 -3.6,2.8 z"
           inkscape:connector-curvature="0"
           style="fill:#323e50" />
      </g>
    </g>
  </g>
</svg>
