<?xml version="1.0" encoding="utf-8"?>
<!-- Generator: Adobe Illustrator 16.0.0, SVG Export Plug-In . SVG Version: 6.00 Build 0)  -->
<!DOCTYPE svg PUBLIC "-//W3C//DTD SVG 1.1//EN" "http://www.w3.org/Graphics/SVG/1.1/DTD/svg11.dtd">
<svg version="1.1" id="objet" xmlns="http://www.w3.org/2000/svg" xmlns:xlink="http://www.w3.org/1999/xlink" x="0px" y="0px"
	 width="200px" height="200px" viewBox="0 0 200 200" enable-background="new 0 0 200 200" xml:space="preserve">
<rect x="29.896" y="74.604" fill="#010101" width="137.193" height="68.746"/>
<path fill="#010101" d="M180.371,57.241H16.564c-4.597,0-8.324,3.727-8.324,8.324v69.869c0,4.598,3.727,8.324,8.324,8.324h163.807
	c4.598,0,8.324-3.727,8.324-8.324V65.565C188.695,60.968,184.969,57.241,180.371,57.241z"/>
<g>
	<rect x="31.827" y="75.549" fill="#FFFFFF" width="14.827" height="67.11"/>
	<rect x="48.736" y="75.549" fill="#FFFFFF" width="14.827" height="67.11"/>
	<rect x="65.645" y="75.549" fill="#FFFFFF" width="14.827" height="67.11"/>
	<rect x="82.553" y="75.549" fill="#FFFFFF" width="14.827" height="67.11"/>
	<rect x="99.461" y="75.549" fill="#FFFFFF" width="14.827" height="67.11"/>
	<rect x="116.369" y="75.549" fill="#FFFFFF" width="14.827" height="67.11"/>
	<rect x="133.277" y="75.549" fill="#FFFFFF" width="14.827" height="67.11"/>
	<rect x="150.187" y="75.549" fill="#FFFFFF" width="14.826" height="67.11"/>
	<rect x="42.604" y="75.549" fill="#010101" width="10.104" height="33.555"/>
	<rect x="59.551" y="75.549" fill="#010101" width="10.105" height="33.555"/>
	<rect x="76.498" y="75.549" fill="#010101" width="10.104" height="33.555"/>
	<rect x="93.444" y="75.549" fill="#010101" width="10.105" height="33.555"/>
	<rect x="110.391" y="75.549" fill="#010101" width="10.104" height="33.555"/>
	<rect x="127.337" y="75.549" fill="#010101" width="10.104" height="33.555"/>
	<rect x="144.283" y="75.549" fill="#010101" width="10.104" height="33.555"/>
</g>
</svg>
