<?xml version="1.0" encoding="iso-8859-1"?>
<!-- Generator: Adobe Illustrator 16.0.0, SVG Export Plug-In . SVG Version: 6.00 Build 0)  -->
<!DOCTYPE svg PUBLIC "-//W3C//DTD SVG 1.1//EN" "http://www.w3.org/Graphics/SVG/1.1/DTD/svg11.dtd">
<svg version="1.1" id="objet" xmlns="http://www.w3.org/2000/svg" xmlns:xlink="http://www.w3.org/1999/xlink" x="0px" y="0px"
	 width="200px" height="200px" viewBox="0 0 486.724 486.725" style="enable-background:new 0 0 486.724 486.725;"
	 xml:space="preserve">
<g>
	<path d="M404.295,119.24H82.429C36.974,119.24,0,156.215,0,201.669v83.387c0,45.452,36.974,82.429,82.429,82.429h321.867
		c45.452,0,82.429-36.977,82.429-82.429v-83.387C486.724,156.215,449.748,119.24,404.295,119.24z M85.388,226.754h33.49v94.625
		h19.312v32.368H85.388V226.754z M151.544,321.379h17.733v-94.625h15.748v94.625h19.312v32.368h-52.8v-32.368H151.544z
		 M217.691,321.379h17.743v-94.625h15.745v94.625h19.312v32.368h-52.799V321.379z M283.848,321.379h17.74v-94.625h15.016v94.625
		h20.05v32.368h-52.798v-32.368H283.848z M349.273,321.379h17.733v-94.625h35.064v126.993h-52.798V321.379z"/>
</g>
<g>
</g>
<g>
</g>
<g>
</g>
<g>
</g>
<g>
</g>
<g>
</g>
<g>
</g>
<g>
</g>
<g>
</g>
<g>
</g>
<g>
</g>
<g>
</g>
<g>
</g>
<g>
</g>
<g>
</g>
</svg>
