<?xml version="1.0" encoding="UTF-8" standalone="no"?>
<!-- Created with Inkscape (http://www.inkscape.org/) -->

<svg
   xmlns:dc="http://purl.org/dc/elements/1.1/"
   xmlns:cc="http://creativecommons.org/ns#"
   xmlns:rdf="http://www.w3.org/1999/02/22-rdf-syntax-ns#"
   xmlns:svg="http://www.w3.org/2000/svg"
   xmlns="http://www.w3.org/2000/svg"
   xmlns:sodipodi="http://sodipodi.sourceforge.net/DTD/sodipodi-0.dtd"
   xmlns:inkscape="http://www.inkscape.org/namespaces/inkscape"
   width="150px"
   height="40px"
   viewBox="0 0 247.48296 69.698615"
   version="1.1"
   id="objet"
   inkscape:version="0.92.3 (2405546, 2018-03-11)"
   sodipodi:docname="piano_orange.svg">
  <defs
     id="defs8776" />
  <sodipodi:namedview
     id="base"
     pagecolor="#ffffff"
     bordercolor="#666666"
     borderopacity="1.0"
     inkscape:pageopacity="0.0"
     inkscape:pageshadow="2"
     inkscape:zoom="0.35"
     inkscape:cx="481.6401"
     inkscape:cy="-47.828953"
     inkscape:document-units="mm"
     inkscape:current-layer="layer1"
     showgrid="false"
     fit-margin-top="0"
     fit-margin-left="0"
     fit-margin-right="0"
     fit-margin-bottom="0"
     inkscape:window-width="1920"
     inkscape:window-height="1017"
     inkscape:window-x="-4"
     inkscape:window-y="-4"
     inkscape:window-maximized="1" />
  <metadata
     id="metadata8779">
    <rdf:RDF>
      <cc:Work
         rdf:about="">
        <dc:format>image/svg+xml</dc:format>
        <dc:type
           rdf:resource="http://purl.org/dc/dcmitype/StillImage" />
        <dc:title></dc:title>
      </cc:Work>
    </rdf:RDF>
  </metadata>
  <g
     inkscape:label="Calque 1"
     inkscape:groupmode="layer"
     id="layer1"
     transform="translate(21.600608,-66.479972)">
    <g
       transform="matrix(0.40664305,0,0,0.40664305,-317.55542,-109.51514)"
       id="g8995">
      <path
         id="path8851"
         d="M 1313.7,604.2 H 750.4 c -12.5,0 -22.6,-10.1 -22.6,-22.6 V 455.4 c 0,-12.5 10.1,-22.6 22.6,-22.6 h 563.4 c 12.5,0 22.6,10.1 22.6,22.6 v 126.2 c -0.1,12.5 -10.2,22.6 -22.7,22.6 z"
         inkscape:connector-curvature="0"
         style="fill:#fd653f" />
      <path
         id="path8853"
         d="M 1313.7,594.2 H 750.4 c -12.5,0 -22.6,-10.1 -22.6,-22.6 v 10 c 0,12.5 10.1,22.6 22.6,22.6 h 563.4 c 12.5,0 22.6,-10.1 22.6,-22.6 v -10 c -0.1,12.5 -10.2,22.6 -22.7,22.6 z"
         inkscape:connector-curvature="0"
         style="fill:#e05a38" />
      <g
         id="g8951">
        <g
           id="g8885">
          <path
             id="path8855"
             d="m 747.29999,508.39999 h 20.9 v 76.6 h -20.9 z"
             inkscape:connector-curvature="0"
             style="fill:#ffffff" />
          <path
             id="path8857"
             d="m 771.09998,508.39999 h 20.89999 v 76.6 h -20.89999 z"
             inkscape:connector-curvature="0"
             style="fill:#ffffff" />
          <path
             id="path8859"
             d="m 794.90002,508.39999 h 20.9 v 76.6 h -20.9 z"
             inkscape:connector-curvature="0"
             style="fill:#ffffff" />
          <path
             id="path8861"
             d="m 818.70001,508.39999 h 20.9 v 76.6 h -20.9 z"
             inkscape:connector-curvature="0"
             style="fill:#ffffff" />
          <path
             id="path8863"
             d="m 842.5,508.39999 h 20.9 v 76.6 h -20.9 z"
             inkscape:connector-curvature="0"
             style="fill:#ffffff" />
          <path
             id="path8865"
             d="m 866.29999,508.39999 h 20.9 v 76.6 h -20.9 z"
             inkscape:connector-curvature="0"
             style="fill:#ffffff" />
          <path
             id="path8867"
             d="m 890.09998,508.39999 h 20.89999 v 76.6 h -20.89999 z"
             inkscape:connector-curvature="0"
             style="fill:#ffffff" />
          <path
             id="path8869"
             d="m 913.90002,508.39999 h 20.9 v 76.6 h -20.9 z"
             inkscape:connector-curvature="0"
             style="fill:#ffffff" />
          <path
             id="path8871"
             d="m 762.40002,508.39999 h 14.2 v 47.3 h -14.2 z"
             inkscape:connector-curvature="0"
             style="fill:#575757" />
          <path
             id="path8873"
             d="m 786.29999,508.39999 h 14.2 v 47.3 h -14.2 z"
             inkscape:connector-curvature="0"
             style="fill:#575757" />
          <path
             id="path8875"
             d="m 810.20001,508.39999 h 14.2 v 47.3 h -14.2 z"
             inkscape:connector-curvature="0"
             style="fill:#575757" />
          <path
             id="path8877"
             d="m 834,508.39999 h 14.2 v 47.3 H 834 Z"
             inkscape:connector-curvature="0"
             style="fill:#575757" />
          <path
             id="path8879"
             d="m 857.90002,508.39999 h 14.2 v 47.3 h -14.2 z"
             inkscape:connector-curvature="0"
             style="fill:#575757" />
          <path
             id="path8881"
             d="m 881.79999,508.39999 h 14.2 v 47.3 h -14.2 z"
             inkscape:connector-curvature="0"
             style="fill:#575757" />
          <path
             id="path8883"
             d="m 905.59998,508.39999 h 14.2 v 47.3 h -14.2 z"
             inkscape:connector-curvature="0"
             style="fill:#575757" />
        </g>
        <g
           id="g8917">
          <path
             id="path8887"
             d="m 938.29999,508.39999 h 20.9 v 76.6 h -20.9 z"
             inkscape:connector-curvature="0"
             style="fill:#ffffff" />
          <path
             id="path8889"
             d="m 962.09998,508.39999 h 20.89999 v 76.6 h -20.89999 z"
             inkscape:connector-curvature="0"
             style="fill:#ffffff" />
          <path
             id="path8891"
             d="M 985.90002,508.39999 H 1006.8 v 76.6 h -20.89998 z"
             inkscape:connector-curvature="0"
             style="fill:#ffffff" />
          <path
             id="path8893"
             d="m 1009.7,508.39999 h 20.9 v 76.6 h -20.9 z"
             inkscape:connector-curvature="0"
             style="fill:#ffffff" />
          <path
             id="path8895"
             d="m 1033.5,508.39999 h 20.9 v 76.6 h -20.9 z"
             inkscape:connector-curvature="0"
             style="fill:#ffffff" />
          <path
             id="path8897"
             d="m 1057.3,508.39999 h 20.9 v 76.6 h -20.9 z"
             inkscape:connector-curvature="0"
             style="fill:#ffffff" />
          <path
             id="path8899"
             d="m 1081.2,508.39999 h 20.9 v 76.6 h -20.9 z"
             inkscape:connector-curvature="0"
             style="fill:#ffffff" />
          <path
             id="path8901"
             d="m 1105,508.39999 h 20.9 v 76.6 H 1105 Z"
             inkscape:connector-curvature="0"
             style="fill:#ffffff" />
          <path
             id="path8903"
             d="m 953.5,508.39999 h 14.2 v 47.3 h -14.2 z"
             inkscape:connector-curvature="0"
             style="fill:#575757" />
          <path
             id="path8905"
             d="m 977.29999,508.39999 h 14.2 v 47.3 h -14.2 z"
             inkscape:connector-curvature="0"
             style="fill:#575757" />
          <path
             id="path8907"
             d="m 1001.2,508.39999 h 14.2 v 47.3 h -14.2 z"
             inkscape:connector-curvature="0"
             style="fill:#575757" />
          <path
             id="path8909"
             d="m 1025.1,508.39999 h 14.2 v 47.3 h -14.2 z"
             inkscape:connector-curvature="0"
             style="fill:#575757" />
          <path
             id="path8911"
             d="m 1048.9,508.39999 h 14.2 v 47.3 h -14.2 z"
             inkscape:connector-curvature="0"
             style="fill:#575757" />
          <path
             id="path8913"
             d="m 1072.8,508.39999 h 14.2 v 47.3 h -14.2 z"
             inkscape:connector-curvature="0"
             style="fill:#575757" />
          <path
             id="path8915"
             d="m 1096.6,508.39999 h 14.2 v 47.3 h -14.2 z"
             inkscape:connector-curvature="0"
             style="fill:#575757" />
        </g>
        <g
           id="g8949">
          <path
             id="path8919"
             d="m 1129.3,508.39999 h 20.9 v 76.6 h -20.9 z"
             inkscape:connector-curvature="0"
             style="fill:#ffffff" />
          <path
             id="path8921"
             d="m 1153.1,508.39999 h 20.9 v 76.6 h -20.9 z"
             inkscape:connector-curvature="0"
             style="fill:#ffffff" />
          <path
             id="path8923"
             d="m 1176.9,508.39999 h 20.9 v 76.6 h -20.9 z"
             inkscape:connector-curvature="0"
             style="fill:#ffffff" />
          <path
             id="path8925"
             d="m 1200.7,508.39999 h 20.9 v 76.6 h -20.9 z"
             inkscape:connector-curvature="0"
             style="fill:#ffffff" />
          <path
             id="path8927"
             d="m 1224.5,508.39999 h 20.9 v 76.6 h -20.9 z"
             inkscape:connector-curvature="0"
             style="fill:#ffffff" />
          <path
             id="path8929"
             d="m 1248.4,508.39999 h 20.9 v 76.6 h -20.9 z"
             inkscape:connector-curvature="0"
             style="fill:#ffffff" />
          <path
             id="path8931"
             d="m 1272.2,508.39999 h 20.9 v 76.6 h -20.9 z"
             inkscape:connector-curvature="0"
             style="fill:#ffffff" />
          <path
             id="path8933"
             d="m 1296,508.39999 h 20.9 v 76.6 H 1296 Z"
             inkscape:connector-curvature="0"
             style="fill:#ffffff" />
          <path
             id="path8935"
             d="m 1144.5,508.39999 h 14.2 v 47.3 h -14.2 z"
             inkscape:connector-curvature="0"
             style="fill:#575757" />
          <path
             id="path8937"
             d="m 1168.3,508.39999 h 14.2 v 47.3 h -14.2 z"
             inkscape:connector-curvature="0"
             style="fill:#575757" />
          <path
             id="path8939"
             d="m 1192.2,508.39999 h 14.2 v 47.3 h -14.2 z"
             inkscape:connector-curvature="0"
             style="fill:#575757" />
          <path
             id="path8941"
             d="m 1216.1,508.39999 h 14.2 v 47.3 h -14.2 z"
             inkscape:connector-curvature="0"
             style="fill:#575757" />
          <path
             id="path8943"
             d="m 1239.9,508.39999 h 14.2 v 47.3 h -14.2 z"
             inkscape:connector-curvature="0"
             style="fill:#575757" />
          <path
             id="path8945"
             d="m 1263.8,508.39999 h 14.2 v 47.3 h -14.2 z"
             inkscape:connector-curvature="0"
             style="fill:#575757" />
          <path
             id="path8947"
             d="m 1287.7,508.39999 h 14.2 v 47.3 h -14.2 z"
             inkscape:connector-curvature="0"
             style="fill:#575757" />
        </g>
      </g>
      <path
         id="path8953"
         d="m 829.8,483.7 h -64.1 c -10.2,0 -18.5,-8.3 -18.5,-18.5 v 0 c 0,-10.2 8.3,-18.5 18.5,-18.5 h 64.1 c 10.2,0 18.5,8.3 18.5,18.5 v 0 c 0,10.2 -8.3,18.5 -18.5,18.5 z"
         inkscape:connector-curvature="0"
         style="fill:#9c3e27" />
      <path
         id="path8955"
         d="m 881.79999,465.20001 a 5,5 0 0 1 -5,5 5,5 0 0 1 -5,-5 5,5 0 0 1 5,-5 5,5 0 0 1 5,5 z"
         inkscape:connector-curvature="0"
         style="fill:#9c3e27" />
      <path
         id="path8957"
         d="m 910.59998,465.20001 a 5,5 0 0 1 -5,5 5,5 0 0 1 -5,-5 5,5 0 0 1 5,-5 5,5 0 0 1 5,5 z"
         inkscape:connector-curvature="0"
         style="fill:#9c3e27" />
      <path
         id="path8959"
         d="m 939.5,465.20001 a 5,5 0 0 1 -5,5 5,5 0 0 1 -5,-5 5,5 0 0 1 5,-5 5,5 0 0 1 5,5 z"
         inkscape:connector-curvature="0"
         style="fill:#9c3e27" />
      <path
         id="path8961"
         d="m 968.40002,465.20001 a 5,5 0 0 1 -5,5 5,5 0 0 1 -5,-5 5,5 0 0 1 5,-5 5,5 0 0 1 5,5 z"
         inkscape:connector-curvature="0"
         style="fill:#9c3e27" />
      <path
         id="path8963"
         d="m 997.20001,465.20001 a 5,5 0 0 1 -5,5 5,5 0 0 1 -5,-5 5,5 0 0 1 5,-5 5,5 0 0 1 5,5 z"
         inkscape:connector-curvature="0"
         style="fill:#9c3e27" />
      <path
         id="path8965"
         d="m 1026.1,465.20001 a 5,5 0 0 1 -5,5 5,5 0 0 1 -5,-5 5,5 0 0 1 5,-5 5,5 0 0 1 5,5 z"
         inkscape:connector-curvature="0"
         style="fill:#9c3e27" />
      <path
         id="path8967"
         d="m 1055,465.20001 a 5,5 0 0 1 -5,5 5,5 0 0 1 -5,-5 5,5 0 0 1 5,-5 5,5 0 0 1 5,5 z"
         inkscape:connector-curvature="0"
         style="fill:#9c3e27" />
      <path
         id="path8969"
         d="m 1083.9,465.20001 a 5,5 0 0 1 -5,5 5,5 0 0 1 -5,-5 5,5 0 0 1 5,-5 5,5 0 0 1 5,5 z"
         inkscape:connector-curvature="0"
         style="fill:#9c3e27" />
      <path
         id="path8971"
         d="m 1112.7,465.20001 a 5,5 0 0 1 -5,5 5,5 0 0 1 -5,-5 5,5 0 0 1 5,-5 5,5 0 0 1 5,5 z"
         inkscape:connector-curvature="0"
         style="fill:#9c3e27" />
      <path
         id="path8973"
         d="m 1141.6,465.20001 a 5,5 0 0 1 -5,5 5,5 0 0 1 -5,-5 5,5 0 0 1 5,-5 5,5 0 0 1 5,5 z"
         inkscape:connector-curvature="0"
         style="fill:#9c3e27" />
      <path
         id="path8975"
         d="m 1173.3,451.70001 a 5,5 0 0 1 -5,5 5,5 0 0 1 -5,-5 5,5 0 0 1 5,-5 5,5 0 0 1 5,5 z"
         inkscape:connector-curvature="0"
         style="fill:#9c3e27" />
      <path
         id="path8977"
         d="m 1173.3,475.89999 a 5,5 0 0 1 -5,5 5,5 0 0 1 -5,-5 5,5 0 0 1 5,-5 5,5 0 0 1 5,5 z"
         inkscape:connector-curvature="0"
         style="fill:#9c3e27" />
      <path
         id="path8979"
         d="m 1202.8,451.70001 a 5,5 0 0 1 -5,5 5,5 0 0 1 -5,-5 5,5 0 0 1 5,-5 5,5 0 0 1 5,5 z"
         inkscape:connector-curvature="0"
         style="fill:#9c3e27" />
      <path
         id="path8981"
         d="m 1202.8,475.89999 a 5,5 0 0 1 -5,5 5,5 0 0 1 -5,-5 5,5 0 0 1 5,-5 5,5 0 0 1 5,5 z"
         inkscape:connector-curvature="0"
         style="fill:#9c3e27" />
      <path
         id="path8983"
         d="m 1232.3,451.70001 a 5,5 0 0 1 -5,5 5,5 0 0 1 -5,-5 5,5 0 0 1 5,-5 5,5 0 0 1 5,5 z"
         inkscape:connector-curvature="0"
         style="fill:#9c3e27" />
      <path
         id="path8985"
         d="m 1232.3,475.89999 a 5,5 0 0 1 -5,5 5,5 0 0 1 -5,-5 5,5 0 0 1 5,-5 5,5 0 0 1 5,5 z"
         inkscape:connector-curvature="0"
         style="fill:#9c3e27" />
      <path
         id="path8987"
         d="m 1261.7,451.70001 a 5,5 0 0 1 -5,5 5,5 0 0 1 -5,-5 5,5 0 0 1 5,-5 5,5 0 0 1 5,5 z"
         inkscape:connector-curvature="0"
         style="fill:#9c3e27" />
      <path
         id="path8989"
         d="m 1261.7,475.89999 a 5,5 0 0 1 -5,5 5,5 0 0 1 -5,-5 5,5 0 0 1 5,-5 5,5 0 0 1 5,5 z"
         inkscape:connector-curvature="0"
         style="fill:#9c3e27" />
      <path
         id="path8991"
         d="m 1291.2,451.70001 a 5,5 0 0 1 -5,5 5,5 0 0 1 -5,-5 5,5 0 0 1 5,-5 5,5 0 0 1 5,5 z"
         inkscape:connector-curvature="0"
         style="fill:#9c3e27" />
      <path
         id="path8993"
         d="m 1291.2,475.89999 a 5,5 0 0 1 -5,5 5,5 0 0 1 -5,-5 5,5 0 0 1 5,-5 5,5 0 0 1 5,5 z"
         inkscape:connector-curvature="0"
         style="fill:#9c3e27" />
    </g>
  </g>
</svg>
