<?xml version="1.0" encoding="UTF-8" standalone="no"?>
<!-- Created with Inkscape (http://www.inkscape.org/) -->

<svg
   xmlns:dc="http://purl.org/dc/elements/1.1/"
   xmlns:cc="http://creativecommons.org/ns#"
   xmlns:rdf="http://www.w3.org/1999/02/22-rdf-syntax-ns#"
   xmlns:svg="http://www.w3.org/2000/svg"
   xmlns="http://www.w3.org/2000/svg"
   xmlns:sodipodi="http://sodipodi.sourceforge.net/DTD/sodipodi-0.dtd"
   xmlns:inkscape="http://www.inkscape.org/namespaces/inkscape"
   width="150px"
   height="150px"
   viewBox="0 0 144.96825 118.17047"
   version="1.1"
   id="objet"
   inkscape:version="0.92.3 (2405546, 2018-03-11)"
   sodipodi:docname="platine.svg">
  <defs
     id="defs8776" />
  <sodipodi:namedview
     id="base"
     pagecolor="#ffffff"
     bordercolor="#666666"
     borderopacity="1.0"
     inkscape:pageopacity="0.0"
     inkscape:pageshadow="2"
     inkscape:zoom="0.35"
     inkscape:cx="336.8129"
     inkscape:cy="9.0285603"
     inkscape:document-units="mm"
     inkscape:current-layer="layer1"
     showgrid="false"
     fit-margin-top="0"
     fit-margin-left="0"
     fit-margin-right="0"
     fit-margin-bottom="0"
     inkscape:window-width="1920"
     inkscape:window-height="1017"
     inkscape:window-x="-4"
     inkscape:window-y="-4"
     inkscape:window-maximized="1" />
  <metadata
     id="metadata8779">
    <rdf:RDF>
      <cc:Work
         rdf:about="">
        <dc:format>image/svg+xml</dc:format>
        <dc:type
           rdf:resource="http://purl.org/dc/dcmitype/StillImage" />
        <dc:title></dc:title>
      </cc:Work>
    </rdf:RDF>
  </metadata>
  <g
     inkscape:label="Calque 1"
     inkscape:groupmode="layer"
     id="layer1"
     transform="translate(-16.718255,-33.05167)">
    <g
       transform="matrix(0.40664305,0,0,0.40664305,-381.75127,4.708649)"
       id="g8833">
      <path
         id="path8787"
         d="M 1311.3,360.3 H 1005 c -13.8,0 -25.1,-11.2 -25.1,-25.1 V 94.8 c 0,-13.8 11.2,-25.1 25.1,-25.1 h 306.3 c 13.8,0 25.1,11.2 25.1,25.1 v 240.4 c -0.1,13.8 -11.3,25.1 -25.1,25.1 z"
         inkscape:connector-curvature="0"
         style="fill:#21d3e9" />
      <g
         id="g8793">
        <path
           id="path8789"
           d="M 1020.9,101.4 A 12.5,12.5 0 0 1 1008.4,113.9 12.5,12.5 0 0 1 995.90002,101.4 12.5,12.5 0 0 1 1008.4,88.900002 12.5,12.5 0 0 1 1020.9,101.4 Z"
           inkscape:connector-curvature="0"
           style="fill:#1794a3" />
        <path
           id="path8791"
           d="m 1020.9,328.60001 a 12.5,12.5 0 0 1 -12.5,12.5 12.5,12.5 0 0 1 -12.49998,-12.5 12.5,12.5 0 0 1 12.49998,-12.5 12.5,12.5 0 0 1 12.5,12.5 z"
           inkscape:connector-curvature="0"
           style="fill:#1794a3" />
      </g>
      <g
         id="g8799">
        <path
           id="path8795"
           d="m 1241.9,101.4 a 12.5,12.5 0 0 1 -12.5,12.5 12.5,12.5 0 0 1 -12.5,-12.5 12.5,12.5 0 0 1 12.5,-12.499998 12.5,12.5 0 0 1 12.5,12.499998 z"
           inkscape:connector-curvature="0"
           style="fill:#1794a3" />
        <path
           id="path8797"
           d="m 1241.9,328.60001 a 12.5,12.5 0 0 1 -12.5,12.5 12.5,12.5 0 0 1 -12.5,-12.5 12.5,12.5 0 0 1 12.5,-12.5 12.5,12.5 0 0 1 12.5,12.5 z"
           inkscape:connector-curvature="0"
           style="fill:#1794a3" />
      </g>
      <path
         id="path8801"
         d="M 1229.3,215 A 115.8,115.8 0 0 1 1113.5,330.8 115.8,115.8 0 0 1 997.7,215 115.8,115.8 0 0 1 1113.5,99.199997 115.8,115.8 0 0 1 1229.3,215 Z"
         inkscape:connector-curvature="0"
         style="fill:#116d78" />
      <path
         id="path8803"
         d="M 1216.9,215 A 103.4,103.4 0 0 1 1113.5,318.4 103.4,103.4 0 0 1 1010.1,215 103.4,103.4 0 0 1 1113.5,111.6 103.4,103.4 0 0 1 1216.9,215 Z"
         inkscape:connector-curvature="0"
         style="fill:#147d8a" />
      <path
         id="path8805"
         d="M 1139,215 A 25.5,25.5 0 0 1 1113.5,240.5 25.5,25.5 0 0 1 1088,215 25.5,25.5 0 0 1 1113.5,189.5 25.5,25.5 0 0 1 1139,215 Z"
         inkscape:connector-curvature="0"
         style="fill:#0d565e" />
      <g
         id="g8809">
        <path
           id="path8807"
           d="m 1229.4,294.3 c -1.9,0 -3.8,-0.6 -5.4,-1.9 -3.9,-3 -4.6,-8.6 -1.6,-12.5 l 40.9,-52.8 V 113.9 c 0,-4.9 4,-8.9 8.9,-8.9 4.9,0 8.9,4 8.9,8.9 v 116.3 c 0,2 -0.7,3.9 -1.9,5.5 l -42.8,55.2 c -1.7,2.2 -4.4,3.4 -7,3.4 z"
           inkscape:connector-curvature="0"
           style="fill:#0d565e" />
      </g>
      <path
         id="path8811"
         d="m 1277.9,140.6 h -12.8 c -7.9,0 -14.3,-6.4 -14.3,-14.3 v -12.8 c 0,-7.9 6.4,-14.3 14.3,-14.3 h 12.8 c 7.9,0 14.3,6.4 14.3,14.3 v 12.8 c 0,7.9 -6.4,14.3 -14.3,14.3 z"
         inkscape:connector-curvature="0"
         style="fill:#0d565e" />
      <g
         id="g8831">
        <path
           id="path8813"
           d="m 1257.5,282.29999 h 13.1 v 13.1 h -13.1 z"
           inkscape:connector-curvature="0"
           style="fill:#1794a3" />
        <path
           id="path8815"
           d="m 1281.9,282.29999 h 13.1 v 13.1 h -13.1 z"
           inkscape:connector-curvature="0"
           style="fill:#1794a3" />
        <path
           id="path8817"
           d="m 1306.3,282.29999 h 13.1 v 13.1 h -13.1 z"
           inkscape:connector-curvature="0"
           style="fill:#1794a3" />
        <path
           id="path8819"
           d="m 1257.5,305.89999 h 13.1 v 13.1 h -13.1 z"
           inkscape:connector-curvature="0"
           style="fill:#1794a3" />
        <path
           id="path8821"
           d="m 1281.9,305.89999 h 13.1 v 13.1 h -13.1 z"
           inkscape:connector-curvature="0"
           style="fill:#1794a3" />
        <path
           id="path8823"
           d="m 1306.3,305.89999 h 13.1 v 13.1 h -13.1 z"
           inkscape:connector-curvature="0"
           style="fill:#1794a3" />
        <path
           id="path8825"
           d="m 1257.5,329.5 h 13.1 v 13.1 h -13.1 z"
           inkscape:connector-curvature="0"
           style="fill:#1794a3" />
        <path
           id="path8827"
           d="m 1281.9,329.5 h 13.1 v 13.1 h -13.1 z"
           inkscape:connector-curvature="0"
           style="fill:#1794a3" />
        <path
           id="path8829"
           d="m 1306.3,329.5 h 13.1 v 13.1 h -13.1 z"
           inkscape:connector-curvature="0"
           style="fill:#1794a3" />
      </g>
    </g>
  </g>
</svg>
