<?xml version="1.0" encoding="UTF-8" standalone="no"?>
<!-- Created with Inkscape (http://www.inkscape.org/) -->

<svg
   xmlns:dc="http://purl.org/dc/elements/1.1/"
   xmlns:cc="http://creativecommons.org/ns#"
   xmlns:rdf="http://www.w3.org/1999/02/22-rdf-syntax-ns#"
   xmlns:svg="http://www.w3.org/2000/svg"
   xmlns="http://www.w3.org/2000/svg"
   xmlns:sodipodi="http://sodipodi.sourceforge.net/DTD/sodipodi-0.dtd"
   xmlns:inkscape="http://www.inkscape.org/namespaces/inkscape"
   width="37.174152mm"
   height="45.428959mm"
   viewBox="0 0 37.174153 45.428953"
   version="1.1"
   id="svg8782"
   inkscape:version="0.92.3 (2405546, 2018-03-11)"
   sodipodi:docname="platine2.svg">
  <defs
     id="defs8776" />
  <sodipodi:namedview
     id="base"
     pagecolor="#ffffff"
     bordercolor="#666666"
     borderopacity="1.0"
     inkscape:pageopacity="0.0"
     inkscape:pageshadow="2"
     inkscape:zoom="0.35"
     inkscape:cx="785.34381"
     inkscape:cy="-309.75997"
     inkscape:document-units="mm"
     inkscape:current-layer="layer1"
     showgrid="false"
     fit-margin-top="0"
     fit-margin-left="0"
     fit-margin-right="0"
     fit-margin-bottom="0"
     inkscape:window-width="1920"
     inkscape:window-height="1017"
     inkscape:window-x="-4"
     inkscape:window-y="-4"
     inkscape:window-maximized="1" />
  <metadata
     id="metadata8779">
    <rdf:RDF>
      <cc:Work
         rdf:about="">
        <dc:format>image/svg+xml</dc:format>
        <dc:type
           rdf:resource="http://purl.org/dc/dcmitype/StillImage" />
        <dc:title></dc:title>
      </cc:Work>
    </rdf:RDF>
  </metadata>
  <g
     inkscape:label="Calque 1"
     inkscape:groupmode="layer"
     id="layer1"
     transform="translate(101.95556,-21.447062)">
    <g
       transform="matrix(0.26458333,0,0,0.26458333,-145.37368,-33.665646)"
       id="g10494">
      <path
         id="path10458"
         d="m 282,380 h -95.3 c -12.5,0 -22.6,-10.1 -22.6,-22.6 V 230.9 c 0,-12.5 10.1,-22.6 22.6,-22.6 H 282 c 12.5,0 22.6,10.1 22.6,22.6 V 357.3 C 304.7,369.9 294.5,380 282,380 Z"
         inkscape:connector-curvature="0"
         style="fill:#bbbec2" />
      <g
         id="g10492">
        <path
           id="path10460"
           d="m 184.1,369.6 v 0 c -3.4,0 -6.2,-2.8 -6.2,-6.2 V 224.9 c 0,-3.4 2.8,-6.2 6.2,-6.2 v 0 c 3.4,0 6.2,2.8 6.2,6.2 v 138.6 c 0,3.3 -2.7,6.1 -6.2,6.1 z"
           inkscape:connector-curvature="0"
           style="fill:#184967" />
        <path
           id="path10462"
           d="m 187.2,310.8 h -6.1 c -5,0 -9.1,-4.1 -9.1,-9.1 v -11.9 c 0,-5 4.1,-9.1 9.1,-9.1 h 6.1 c 5,0 9.1,4.1 9.1,9.1 v 11.9 c 0,5 -4.1,9.1 -9.1,9.1 z"
           inkscape:connector-curvature="0"
           style="fill:#e6e9ee" />
        <path
           id="path10464"
           d="m 188.5,292.4 h -8.7 c -1,0 -1.9,-0.8 -1.9,-1.9 v 0 c 0,-1 0.8,-1.9 1.9,-1.9 h 8.7 c 1,0 1.9,0.8 1.9,1.9 v 0 c -0.1,1 -0.9,1.9 -1.9,1.9 z"
           inkscape:connector-curvature="0"
           style="fill:#bbbec2" />
        <path
           id="path10466"
           d="m 188.5,303.3 h -8.7 c -1,0 -1.9,-0.8 -1.9,-1.9 v 0 c 0,-1 0.8,-1.9 1.9,-1.9 h 8.7 c 1,0 1.9,0.8 1.9,1.9 v 0 c -0.1,1.1 -0.9,1.9 -1.9,1.9 z"
           inkscape:connector-curvature="0"
           style="fill:#bbbec2" />
        <path
           id="path10468"
           d="m 217.6,369.6 v 0 c -3.4,0 -6.2,-2.8 -6.2,-6.2 V 224.9 c 0,-3.4 2.8,-6.2 6.2,-6.2 v 0 c 3.4,0 6.2,2.8 6.2,6.2 v 138.6 c 0,3.3 -2.8,6.1 -6.2,6.1 z"
           inkscape:connector-curvature="0"
           style="fill:#184967" />
        <path
           id="path10470"
           d="m 220.7,344.3 h -6.1 c -5,0 -9.1,-4.1 -9.1,-9.1 v -11.9 c 0,-5 4.1,-9.1 9.1,-9.1 h 6.1 c 5,0 9.1,4.1 9.1,9.1 v 11.9 c 0,5 -4.1,9.1 -9.1,9.1 z"
           inkscape:connector-curvature="0"
           style="fill:#e6e9ee" />
        <path
           id="path10472"
           d="m 222,325.9 h -8.7 c -1,0 -1.9,-0.8 -1.9,-1.9 v 0 c 0,-1 0.8,-1.9 1.9,-1.9 h 8.7 c 1,0 1.9,0.8 1.9,1.9 v 0 c -0.1,1.1 -0.9,1.9 -1.9,1.9 z"
           inkscape:connector-curvature="0"
           style="fill:#bbbec2" />
        <path
           id="path10474"
           d="m 222,336.9 h -8.7 c -1,0 -1.9,-0.8 -1.9,-1.9 v 0 c 0,-1 0.8,-1.9 1.9,-1.9 h 8.7 c 1,0 1.9,0.8 1.9,1.9 v 0 c -0.1,1 -0.9,1.9 -1.9,1.9 z"
           inkscape:connector-curvature="0"
           style="fill:#bbbec2" />
        <path
           id="path10476"
           d="m 251.1,369.6 v 0 c -3.4,0 -6.2,-2.8 -6.2,-6.2 V 224.9 c 0,-3.4 2.8,-6.2 6.2,-6.2 v 0 c 3.4,0 6.2,2.8 6.2,6.2 v 138.6 c 0,3.3 -2.8,6.1 -6.2,6.1 z"
           inkscape:connector-curvature="0"
           style="fill:#184967" />
        <path
           id="path10478"
           d="M 254.2,260.6 H 248 c -5,0 -9.1,-4.1 -9.1,-9.1 v -11.9 c 0,-5 4.1,-9.1 9.1,-9.1 h 6.1 c 5,0 9.1,4.1 9.1,9.1 v 11.9 c 0.1,5.1 -4,9.1 -9,9.1 z"
           inkscape:connector-curvature="0"
           style="fill:#e6e9ee" />
        <path
           id="path10480"
           d="m 255.4,242.2 h -8.7 c -1,0 -1.9,-0.8 -1.9,-1.9 v 0 c 0,-1 0.8,-1.9 1.9,-1.9 h 8.7 c 1,0 1.9,0.8 1.9,1.9 v 0 c 0,1.1 -0.8,1.9 -1.9,1.9 z"
           inkscape:connector-curvature="0"
           style="fill:#bbbec2" />
        <path
           id="path10482"
           d="m 255.4,253.2 h -8.7 c -1,0 -1.9,-0.8 -1.9,-1.9 v 0 c 0,-1 0.8,-1.9 1.9,-1.9 h 8.7 c 1,0 1.9,0.8 1.9,1.9 v 0 c 0,1.1 -0.8,1.9 -1.9,1.9 z"
           inkscape:connector-curvature="0"
           style="fill:#bbbec2" />
        <path
           id="path10484"
           d="m 284.6,369.6 v 0 c -3.4,0 -6.2,-2.8 -6.2,-6.2 V 224.9 c 0,-3.4 2.8,-6.2 6.2,-6.2 v 0 c 3.4,0 6.2,2.8 6.2,6.2 v 138.6 c 0,3.3 -2.8,6.1 -6.2,6.1 z"
           inkscape:connector-curvature="0"
           style="fill:#184967" />
        <path
           id="path10486"
           d="m 287.7,335 h -6.1 c -5,0 -9.1,-4.1 -9.1,-9.1 V 314 c 0,-5 4.1,-9.1 9.1,-9.1 h 6.1 c 5,0 9.1,4.1 9.1,9.1 v 11.9 c 0,5 -4.1,9.1 -9.1,9.1 z"
           inkscape:connector-curvature="0"
           style="fill:#e6e9ee" />
        <path
           id="path10488"
           d="m 288.9,316.6 h -8.7 c -1,0 -1.9,-0.8 -1.9,-1.9 v 0 c 0,-1 0.8,-1.9 1.9,-1.9 h 8.7 c 1,0 1.9,0.8 1.9,1.9 v 0 c 0,1 -0.8,1.9 -1.9,1.9 z"
           inkscape:connector-curvature="0"
           style="fill:#bbbec2" />
        <path
           id="path10490"
           d="m 288.9,327.6 h -8.7 c -1,0 -1.9,-0.8 -1.9,-1.9 v 0 c 0,-1 0.8,-1.9 1.9,-1.9 h 8.7 c 1,0 1.9,0.8 1.9,1.9 v 0 c 0,1 -0.8,1.9 -1.9,1.9 z"
           inkscape:connector-curvature="0"
           style="fill:#bbbec2" />
      </g>
    </g>
  </g>
</svg>
