<?xml version="1.0" encoding="iso-8859-1"?>
<!-- Generator: Adobe Illustrator 19.0.0, SVG Export Plug-In . SVG Version: 6.00 Build 0)  -->
<svg version="1.1" id="sofa" xmlns="http://www.w3.org/2000/svg" xmlns:xlink="http://www.w3.org/1999/xlink" x="0px" y="0px"
	 viewBox="0 0 512 512" style="enable-background:new 0 0 512 512;" xml:space="preserve">
<g>
	<g>
		<g>
			<path d="M469.333,204.8c-23.927,0-42.667,18.739-42.667,42.667v12.8c0,4.71,3.823,8.533,8.533,8.533s8.533-3.823,8.533-8.533
				v-12.8c0-14.592,11.008-25.6,25.6-25.6s25.6,11.008,25.6,25.6V384c0,14.114-11.486,25.6-25.6,25.6H42.667
				c-14.114,0-25.6-11.486-25.6-25.6V247.467c0-14.592,11.008-25.6,25.6-25.6c14.592,0,25.6,11.008,25.6,25.6v12.8
				c0,4.71,3.823,8.533,8.533,8.533s8.533-3.823,8.533-8.533v-12.8c0-23.927-18.739-42.667-42.667-42.667
				C18.739,204.8,0,223.539,0,247.467V384c0,23.526,19.14,42.667,42.667,42.667h426.667C492.86,426.667,512,407.526,512,384V247.467
				C512,223.539,493.261,204.8,469.333,204.8z"/>
			<path d="M68.267,315.733v34.133c0,4.71,3.823,8.533,8.533,8.533h358.4c4.71,0,8.533-3.823,8.533-8.533v-34.133
				c0-23.526-19.14-42.667-42.667-42.667H110.933C87.407,273.067,68.267,292.207,68.267,315.733z M426.667,315.733v25.6H85.333
				v-25.6c0-14.114,11.486-25.6,25.6-25.6h290.133C415.181,290.133,426.667,301.619,426.667,315.733z"/>
			<path d="M213.333,136.533c0-4.71-3.814-8.533-8.533-8.533s-8.533,3.823-8.533,8.533s3.814,8.533,8.533,8.533
				S213.333,141.244,213.333,136.533z"/>
			<path d="M76.8,200.849c4.71,0,8.533-3.823,8.533-8.533v-55.782c0-18.876,9.924-33.553,29.414-43.571
				c0.495-0.239,50.449-24.695,141.252-24.695c105.489,0,139.682,23.706,139.947,23.893c0.435,0.324,0.896,0.614,1.391,0.845
				c24.243,11.785,29.329,30.174,29.329,43.529v55.782c0,4.71,3.823,8.533,8.533,8.533s8.533-3.823,8.533-8.533v-55.782
				c0-25.557-13.611-46.336-38.34-58.581C399.454,73.967,360.883,51.2,256,51.2c-94.788,0-146.714,25.421-148.966,26.539
				c-32.043,16.469-38.767,41.062-38.767,58.795v55.782C68.267,197.026,72.09,200.849,76.8,200.849z"/>
			<path d="M162.133,204.8c0-4.71-3.814-8.533-8.533-8.533c-4.719,0-8.533,3.823-8.533,8.533s3.814,8.533,8.533,8.533
				C158.319,213.333,162.133,209.51,162.133,204.8z"/>
			<path d="M110.933,443.733h-51.2c-4.71,0-8.533,3.823-8.533,8.533s3.823,8.533,8.533,8.533h51.2c4.71,0,8.533-3.823,8.533-8.533
				S115.644,443.733,110.933,443.733z"/>
			<path d="M452.267,443.733h-51.2c-4.71,0-8.533,3.823-8.533,8.533s3.823,8.533,8.533,8.533h51.2c4.71,0,8.533-3.823,8.533-8.533
				S456.977,443.733,452.267,443.733z"/>
			<path d="M264.533,204.8c0-4.71-3.814-8.533-8.533-8.533s-8.533,3.823-8.533,8.533s3.814,8.533,8.533,8.533
				S264.533,209.51,264.533,204.8z"/>
			<path d="M315.733,136.533c0-4.71-3.814-8.533-8.533-8.533s-8.533,3.823-8.533,8.533s3.814,8.533,8.533,8.533
				S315.733,141.244,315.733,136.533z"/>
			<path d="M366.933,204.8c0-4.71-3.814-8.533-8.533-8.533s-8.533,3.823-8.533,8.533s3.814,8.533,8.533,8.533
				S366.933,209.51,366.933,204.8z"/>
		</g>
	</g>
</g>
<g>
</g>
<g>
</g>
<g>
</g>
<g>
</g>
<g>
</g>
<g>
</g>
<g>
</g>
<g>
</g>
<g>
</g>
<g>
</g>
<g>
</g>
<g>
</g>
<g>
</g>
<g>
</g>
<g>
</g>
</svg>
