<?xml version="1.0" encoding="utf-8"?>
<!-- Svg Vector Icons : http://www.onlinewebfonts.com/icon -->
<!DOCTYPE svg PUBLIC "-//W3C//DTD SVG 1.1//EN" "http://www.w3.org/Graphics/SVG/1.1/DTD/svg11.dtd">
<svg id="sofa2" version="1.1" xmlns="http://www.w3.org/2000/svg" xmlns:xlink="http://www.w3.org/1999/xlink" x="0px" y="0px" viewBox="0 0 1000 1000" enable-background="new 0 0 1000 1000" xml:space="preserve">
<metadata> Svg Vector Icons : http://www.onlinewebfonts.com/icon </metadata>
<g><path d="M971,452.1C882.3,433,838.8,594.8,838.8,594.8h-656c5.2-74.8-38.2-207.1-125.2-198.3c-87,8.7-38.2,88.7,15.7,107.8c53.9,19.2,76.5,196.7,76.5,196.7h29c5.2,13.5,14.5,26.2,14.5,40.7c14.3,0,28.7,0,43.1,0c0-14.5,9.4-27.2,14.4-40.7h533.6c5.2,13.5,14.5,26.2,14.5,40.7c14.4,0,28.8,0,43,0c0-14.5,9.4-27.2,14.6-40.7h27.4c12.1-111.4,26.2-144.4,80.1-184.5C1018,476.5,971,452.1,971,452.1z"/><path d="M81.1,363.8c24.4,0,56.3,9.7,75.6,32.7c36.1,43.4,62.3,115.3,62,168.8h587.7c9-32.4,58.7-145.3,129-145.3c0.5,0,1,0.1,1.6,0.2c-32.4-21-196.1-41.9-321.5-47.3c-143.6-6.2-185.1-89.9-356.1-113.2C161.7,246.4,87.7,337,67.6,365.1c1.6-0.3,3.2-0.6,4.9-0.8C75.4,364,78.2,363.8,81.1,363.8z"/></g>
</svg>