<?xml version="1.0" encoding="iso-8859-1"?>
<!-- Generator: Adobe Illustrator 19.0.0, SVG Export Plug-In . SVG Version: 6.00 Build 0)  -->
<svg version="1.1" id="objet" xmlns="http://www.w3.org/2000/svg" xmlns:xlink="http://www.w3.org/1999/xlink" x="0px" y="0px"
	 viewBox="0 0 512 512" style="enable-background:new 0 0 512 512;" xml:space="preserve">
<g>
	<g>
		<polygon points="181,482 181,452 61,452 61,482 31,482 31,512 211,512 211,482 		"/>
	</g>
</g>
<g>
	<g>
		<path d="M121,226c-16.538,0-30,13.462-30,30c0,16.538,13.462,30,30,30s30-13.462,30-30C151,239.462,137.538,226,121,226z"/>
	</g>
</g>
<g>
	<g>
		<path d="M121,76c-16.538,0-30,13.462-30,30s13.462,30,30,30s30-13.462,30-30S137.538,76,121,76z"/>
	</g>
</g>
<g>
	<g>
		<path d="M0,0v422h241V0H0z M151,376H91v-30h60V376z M121,316c-33.091,0-60-26.909-60-60s26.909-60,60-60s60,26.909,60,60
			S154.091,316,121,316z M121,166c-33.091,0-60-26.909-60-60s26.909-60,60-60s60,26.909,60,60S154.091,166,121,166z"/>
	</g>
</g>
<g>
	<g>
		<polygon points="451,482 451,452 331,452 331,482 301,482 301,512 481,512 481,482 		"/>
	</g>
</g>
<g>
	<g>
		<path d="M391,226c-16.538,0-30,13.462-30,30c0,16.538,13.462,30,30,30c16.538,0,30-13.462,30-30C421,239.462,407.538,226,391,226z
			"/>
	</g>
</g>
<g>
	<g>
		<path d="M391,76c-16.538,0-30,13.462-30,30s13.462,30,30,30c16.538,0,30-13.462,30-30S407.538,76,391,76z"/>
	</g>
</g>
<g>
	<g>
		<path d="M271,0v422h241V0H271z M421,376h-60v-30h60V376z M391,316c-33.091,0-60-26.909-60-60s26.909-60,60-60s60,26.909,60,60
			S424.091,316,391,316z M391,166c-33.091,0-60-26.909-60-60s26.909-60,60-60s60,26.909,60,60S424.091,166,391,166z"/>
	</g>
</g>
<g>
</g>
<g>
</g>
<g>
</g>
<g>
</g>
<g>
</g>
<g>
</g>
<g>
</g>
<g>
</g>
<g>
</g>
<g>
</g>
<g>
</g>
<g>
</g>
<g>
</g>
<g>
</g>
<g>
</g>
</svg>
