<?xml version="1.0" encoding="iso-8859-1"?>
<!-- Generator: Adobe Illustrator 19.0.0, SVG Export Plug-In . SVG Version: 6.00 Build 0)  -->
<svg version="1.1" id="Capa_1" xmlns="http://www.w3.org/2000/svg" xmlns:xlink="http://www.w3.org/1999/xlink" x="0px" y="0px"
	 viewBox="0 0 512 512" style="enable-background:new 0 0 512 512;" xml:space="preserve">
<g>
	<g>
		<path d="M255.999,271c-44.837,0-81.314,36.478-81.314,81.315c0,44.837,36.478,81.314,81.314,81.314s81.315-36.478,81.315-81.314
			C337.315,307.478,300.837,271,255.999,271z M255.999,400.129c-26.365,0-47.814-21.45-47.814-47.814
			c0-26.365,21.449-47.815,47.814-47.815s47.815,21.45,47.815,47.815S282.365,400.129,255.999,400.129z"/>
	</g>
</g>
<g>
	<g>
		<path d="M255.999,334.5c-9.823,0-17.814,7.992-17.814,17.815s7.991,17.814,17.814,17.814c9.823,0,17.815-7.992,17.815-17.814
			C273.815,342.492,265.823,334.5,255.999,334.5z"/>
	</g>
</g>
<g>
	<g>
		<path d="M255.999,78.782c-25.859,0-46.898,21.038-46.898,46.898c0,25.859,21.039,46.897,46.898,46.897
			s46.897-21.038,46.897-46.897C302.897,99.82,281.859,78.782,255.999,78.782z M255.999,142.768
			c-9.437,0-17.088-7.651-17.088-17.088s7.651-17.088,17.088-17.088c9.438,0,17.088,7.65,17.088,17.088
			S265.437,142.768,255.999,142.768z"/>
	</g>
</g>
<g>
	<g>
		<path d="M81.596,0v512h348.807V0H81.596z M255.999,48.782c42.401,0,76.897,34.496,76.897,76.898
			c0,42.401-34.496,76.897-76.897,76.897s-76.898-34.496-76.898-76.897C179.101,83.278,213.598,48.782,255.999,48.782z
			 M255.999,463.629c-61.379,0-111.314-49.936-111.314-111.314c0-61.38,49.935-111.315,111.314-111.315
			c61.379,0,111.315,49.935,111.315,111.315C367.315,413.694,317.379,463.629,255.999,463.629z"/>
	</g>
</g>
<g>
</g>
<g>
</g>
<g>
</g>
<g>
</g>
<g>
</g>
<g>
</g>
<g>
</g>
<g>
</g>
<g>
</g>
<g>
</g>
<g>
</g>
<g>
</g>
<g>
</g>
<g>
</g>
<g>
</g>
</svg>
