<?xml version="1.0"?>
<svg xmlns:rdf="http://www.w3.org/1999/02/22-rdf-syntax-ns#" xmlns="http://www.w3.org/2000/svg" xmlns:cc="http://creativecommons.org/ns#" xmlns:dc="http://purl.org/dc/elements/1.1/" id="speaker" viewBox="0 0 631.01 670.74" version="1.0">
  <g id="layer1" transform="translate(-39.568 -198.84)">
    <flowRoot id="flowRoot10017" xml:space="preserve" font-size="13px">
      <flowRegion id="flowRegion10019">
        <rect id="rect10021" y="426.25" width="22.434" height="30.592" x="-422.17"/>
      </flowRegion>
      <flowPara id="flowPara10023">Volume</flowPara>
    </flowRoot>
    <path id="rect10002" d="m391.33 224.49c12.08-36.01 255.75-29.58 271.17 0 15.92 30.52 0 644.09 0 644.09h-271.17s-23.24-574.84 0-644.09z" stroke="#000" stroke-width="2" fill="#4d4d4d"/>
    <path id="path10005" d="m407.53 229.79c10.63-30.04 224.82-24.67 238.37 0 13.99 25.47 0 537.38 0 537.38h-238.37s-20.42-479.6 0-537.38z" stroke="#000" stroke-width="2" fill="#1a1a1a"/>
    <path id="path10007" d="m222.3 815.78a20.395 20.395 0 1 1 -40.79 0 20.395 20.395 0 1 1 40.79 0z" fill-rule="evenodd" transform="matrix(.57067 0 0 .92074 315.68 70.509)" stroke="#000" stroke-width="1.3796px"/>
    <path id="path10009" d="m246.77 807.63a8.1578 8.1578 0 1 1 -16.31 0 8.1578 8.1578 0 1 1 16.31 0z" fill-rule="evenodd" transform="matrix(.57067 0 0 .92074 319.17 72.386)" stroke="#000" stroke-width="1.3796px" fill="#0f0"/>
    <path id="path10011" d="m222.3 815.78a20.395 20.395 0 1 1 -40.79 0 20.395 20.395 0 1 1 40.79 0z" fill-rule="evenodd" transform="matrix(.57067 0 0 .92074 380.73 70.509)" stroke="#000" stroke-width="1.3796px"/>
    <path id="text10013" d="m525.62 613.4v4.76h2.16c0.8 0 1.41-0.2 1.85-0.62 0.44-0.41 0.65-1 0.65-1.76s-0.21-1.35-0.65-1.76-1.05-0.62-1.85-0.62h-2.16zm-1.71-1.41h3.87c1.42 0 2.49 0.32 3.22 0.96 0.73 0.65 1.09 1.59 1.09 2.83 0 1.25-0.36 2.2-1.09 2.84s-1.8 0.96-3.22 0.96h-2.16v5.09h-1.71v-12.68zm14.11 4.26c-0.84 0-1.5 0.33-1.98 0.98-0.49 0.66-0.74 1.56-0.74 2.69 0 1.14 0.25 2.04 0.73 2.69 0.49 0.66 1.15 0.98 1.99 0.98s1.5-0.33 1.98-0.98c0.49-0.66 0.73-1.55 0.73-2.69 0-1.12-0.24-2.02-0.73-2.68-0.48-0.66-1.14-0.99-1.98-0.99zm0-1.32c1.36 0 2.43 0.44 3.21 1.32 0.77 0.89 1.16 2.11 1.16 3.67s-0.39 2.78-1.16 3.67c-0.78 0.89-1.85 1.33-3.21 1.33s-2.43-0.44-3.2-1.33c-0.78-0.89-1.16-2.11-1.16-3.67s0.38-2.78 1.16-3.67c0.77-0.88 1.84-1.32 3.2-1.32zm6.04 0.23h1.57l1.95 7.42 1.94-7.42h1.85l1.95 7.42 1.95-7.42h1.56l-2.49 9.51h-1.84l-2.05-7.8-2.06 7.8h-1.84l-2.49-9.51zm23.29 4.36v0.77h-7.19c0.07 1.07 0.39 1.89 0.97 2.46 0.58 0.56 1.39 0.84 2.43 0.84 0.6 0 1.18-0.07 1.74-0.22 0.57-0.15 1.13-0.37 1.68-0.66v1.48c-0.56 0.24-1.13 0.42-1.72 0.54-0.59 0.13-1.19 0.19-1.8 0.19-1.51 0-2.72-0.44-3.6-1.33-0.89-0.88-1.33-2.08-1.33-3.58 0-1.56 0.42-2.8 1.26-3.71s1.98-1.37 3.4-1.37c1.28 0 2.29 0.41 3.04 1.23 0.74 0.83 1.12 1.95 1.12 3.36zm-1.57-0.45c-0.01-0.86-0.25-1.54-0.71-2.05-0.47-0.51-1.09-0.77-1.86-0.77-0.87 0-1.57 0.25-2.09 0.74-0.53 0.5-0.83 1.19-0.91 2.08h5.57zm9.64-2.45c-0.17-0.1-0.36-0.18-0.57-0.23-0.21-0.04-0.43-0.07-0.68-0.07-0.89 0-1.56 0.29-2.04 0.86-0.47 0.58-0.71 1.4-0.71 2.48v5.01h-1.57v-9.51h1.57v1.48c0.33-0.58 0.76-1.01 1.29-1.29 0.52-0.28 1.16-0.42 1.92-0.42 0.1 0 0.22 0.01 0.35 0.02s0.28 0.04 0.44 0.06v1.61z" transform="scale(.78727 1.2702)"/>
    <path id="text10025" d="m604.02 624.67l-4.84-12.68h1.79l4.02 10.68 4.03-10.68h1.78l-4.83 12.68h-1.95zm12.24-8.42c-0.84 0-1.5 0.33-1.99 0.98-0.48 0.66-0.73 1.56-0.73 2.69 0 1.14 0.25 2.04 0.73 2.69 0.48 0.66 1.15 0.98 1.99 0.98 0.83 0 1.49-0.33 1.98-0.98 0.49-0.66 0.73-1.55 0.73-2.69 0-1.12-0.24-2.02-0.73-2.68s-1.15-0.99-1.98-0.99zm0-1.32c1.36 0 2.43 0.44 3.2 1.32 0.78 0.89 1.17 2.11 1.17 3.67s-0.39 2.78-1.17 3.67c-0.77 0.89-1.84 1.33-3.2 1.33s-2.43-0.44-3.2-1.33c-0.78-0.89-1.16-2.11-1.16-3.67s0.38-2.78 1.16-3.67c0.77-0.88 1.84-1.32 3.2-1.32zm6.95-3.48h1.56v13.22h-1.56v-13.22zm4.66 9.47v-5.76h1.57v5.7c0 0.9 0.17 1.57 0.52 2.02s0.88 0.68 1.58 0.68c0.85 0 1.51-0.27 2-0.81s0.74-1.27 0.74-2.2v-5.39h1.56v9.51h-1.56v-1.46c-0.38 0.58-0.82 1.01-1.32 1.29s-1.08 0.42-1.75 0.42c-1.09 0-1.92-0.34-2.49-1.02-0.56-0.68-0.85-1.67-0.85-2.98zm18.62-3.94c0.39-0.7 0.85-1.22 1.4-1.55 0.54-0.33 1.18-0.5 1.92-0.5 0.99 0 1.75 0.35 2.29 1.04s0.81 1.68 0.81 2.96v5.74h-1.57v-5.69c0-0.91-0.17-1.59-0.49-2.03s-0.81-0.66-1.48-0.66c-0.81 0-1.45 0.27-1.92 0.8-0.47 0.54-0.7 1.28-0.7 2.2v5.38h-1.57v-5.69c0-0.92-0.16-1.6-0.49-2.03-0.32-0.44-0.82-0.66-1.49-0.66-0.8 0-1.43 0.27-1.9 0.81s-0.71 1.27-0.71 2.19v5.38h-1.57v-9.51h1.57v1.48c0.36-0.59 0.78-1.02 1.28-1.3 0.5-0.27 1.09-0.41 1.78-0.41s1.28 0.17 1.76 0.53c0.49 0.35 0.84 0.86 1.08 1.52zm17.68 2.54v0.77h-7.18c0.06 1.07 0.39 1.89 0.97 2.46 0.58 0.56 1.39 0.84 2.42 0.84 0.6 0 1.19-0.07 1.75-0.22s1.12-0.37 1.68-0.66v1.48c-0.56 0.24-1.14 0.42-1.73 0.54-0.59 0.13-1.18 0.19-1.79 0.19-1.52 0-2.72-0.44-3.61-1.33-0.88-0.88-1.33-2.08-1.33-3.58 0-1.56 0.42-2.8 1.27-3.71 0.84-0.91 1.97-1.37 3.4-1.37 1.28 0 2.29 0.41 3.03 1.23 0.75 0.83 1.12 1.95 1.12 3.36zm-1.56-0.45c-0.01-0.86-0.25-1.54-0.72-2.05s-1.09-0.77-1.86-0.77c-0.87 0-1.57 0.25-2.09 0.74-0.52 0.5-0.82 1.19-0.9 2.08h5.57z" transform="scale(.78727 1.2702)"/>
    <path id="path10080" d="m50.897 224.49c12.085-36.01 255.75-29.58 271.18 0 15.91 30.52 0 644.09 0 644.09h-271.18c-0.003 0-23.243-574.84-0.003-644.09z" stroke="#000" stroke-width="2" fill="#4d4d4d"/>
    <path id="path10082" d="m67.105 229.79c10.623-30.04 224.82-24.67 238.36 0 14 25.47 0.01 537.39 0.01 537.39h-238.36c-0.005 0-20.433-479.61-0.005-537.39z" stroke="#000" stroke-width="2" fill="#1a1a1a"/>
  </g>
  <metadata>
    <rdf:RDF>
      <cc:Work>
        <dc:format>image/svg+xml</dc:format>
        <dc:type rdf:resource="http://purl.org/dc/dcmitype/StillImage"/>
        <cc:license rdf:resource="http://creativecommons.org/licenses/publicdomain/"/>
        <dc:publisher>
          <cc:Agent rdf:about="http://openclipart.org/">
            <dc:title>Openclipart</dc:title>
          </cc:Agent>
        </dc:publisher>
      </cc:Work>
      <cc:License rdf:about="http://creativecommons.org/licenses/publicdomain/">
        <cc:permits rdf:resource="http://creativecommons.org/ns#Reproduction"/>
        <cc:permits rdf:resource="http://creativecommons.org/ns#Distribution"/>
        <cc:permits rdf:resource="http://creativecommons.org/ns#DerivativeWorks"/>
      </cc:License>
    </rdf:RDF>
  </metadata>
</svg>
