<svg viewBox="-38 0 512 512" xmlns="http://www.w3.org/2000/svg"><path d="m153.59375 231.128906 19.382812-19.386718c13.621094 32.425781 45.707032 55.257812 83.023438 55.257812 20.53125 0 39.476562-6.914062 54.636719-18.535156l40.089843 40.089844-21.214843 21.214843-42.425781-42.429687-21.214844 21.214844 42.425781 42.425781-27.425781 27.425781v153.59375h-30v-153.59375l-97.277344-97.277344h-153.59375v-30zm0 0"/><path d="m141.164062 291.128906 79.707032 79.707032v87.308593l-12.71875 21.59375-175.890625-175.890625 21.59375-12.71875zm0 0"/><path d="m256 117c33.085938 0 60 26.914062 60 60s-26.914062 60-60 60-60-26.914062-60-60 26.914062-60 60-60zm0 0"/><path d="m346 177c0-37.316406-22.832031-69.402344-55.257812-83.019531l2-2.003907c21.445312-21.441406 56.335937-21.441406 77.78125 0l49.5 49.5c21.445312 21.445313 21.445312 56.335938 0 77.78125l-5.65625 5.65625-42.429688-42.425781-21.210938 21.210938 42.425782 42.429687-21.214844 21.214844-40.824219-40.824219c9.402344-14.214843 14.886719-31.238281 14.886719-49.519531zm0 0"/><path d="m255.285156 87.007812c-16.113281.128907-31.234375 4.507813-44.285156 12.074219v-99.082031h90v51.574219c-10.925781 4.210937-20.953125 10.671875-29.472656 19.191406zm0 0"/></svg>