<?xml version="1.0" encoding="iso-8859-1"?>
<!-- Generator: Adobe Illustrator 19.0.0, SVG Export Plug-In . SVG Version: 6.00 Build 0)  -->
<svg version="1.1" id="objet" xmlns="http://www.w3.org/2000/svg" xmlns:xlink="http://www.w3.org/1999/xlink" x="0px" y="0px" width="200px" height="200px"
	 viewBox="0 0 512 512" style="enable-background:new 0 0 512 512;" xml:space="preserve">
<g>
	<g>
		<path d="M191.678,211.002l-63.644-63.63c-28.3-28.329-77.75-28.329-106.05,0c-29.312,29.281-29.312,76.768,0,106.05l63.63,63.644
			c5.856,5.856,15.354,5.856,21.21,0l84.854-84.854C197.534,226.357,197.534,216.858,191.678,211.002z"/>
	</g>
</g>
<g>
	<g>
		<path d="M490.017,147.372c-28.3-28.329-77.75-28.329-106.05,0l-64.644,63.63c-5.856,5.856-5.856,15.354,0,21.21l85.854,84.854
			c5.856,5.856,15.354,5.856,21.21,0l63.63-63.644C519.328,224.142,519.328,176.654,490.017,147.372z"/>
	</g>
</g>
<g>
	<g>
		<path d="M179.685,391.375L65.565,485.36c-10.94,8.914-4.638,26.628,9.474,26.628h101.139c4.264,0,8.326-1.815,11.17-4.992
			l48.521-54.035L179.685,391.375z"/>
	</g>
</g>
<g>
	<g>
		<polygon points="322.407,276.715 279.756,310.653 329.093,350.035 360.582,314.891 		"/>
	</g>
</g>
<g>
	<g>
		<path d="M446.455,485.359L189.602,276.708l-38.175,38.175L324.67,506.996c2.845,3.177,6.909,4.991,11.17,4.991h101.139
			C451.091,511.987,457.392,494.273,446.455,485.359z"/>
	</g>
</g>
<g>
	<g>
		<path d="M466.991,61.01h-14.999V30.012h44.998v-0.001c8.291,0,14.999-6.709,14.999-14.999S505.28,0.012,496.989,0.012H15.012
			c-8.291,0-14.999,6.709-14.999,14.999s6.709,14.999,14.999,14.999H60.01v30.999H45.011c-24.813,0-44.998,20.185-44.998,44.998
			v21.084c0.287-0.295,0.483-0.652,0.776-0.943C19.831,107.077,46.9,96.121,75.009,96.121s55.178,10.956,74.25,30.058l0.747,0.747
			v-20.917c0-24.813-20.185-44.998-44.998-44.998H90.009V30.012h331.984V61.01h-14.999c-24.813,0-44.998,20.185-44.998,44.998
			v20.917l0.762-0.762c19.057-19.086,46.126-30.043,74.235-30.043c28.109,0,55.178,10.956,74.25,30.058
			c0.282,0.28,0.469,0.624,0.747,0.908v-21.078C511.989,81.195,491.804,61.01,466.991,61.01z"/>
	</g>
</g>
<g>
</g>
<g>
</g>
<g>
</g>
<g>
</g>
<g>
</g>
<g>
</g>
<g>
</g>
<g>
</g>
<g>
</g>
<g>
</g>
<g>
</g>
<g>
</g>
<g>
</g>
<g>
</g>
<g>
</g>
</svg>
