<?xml version="1.0" encoding="iso-8859-1"?>
<!-- Generator: Adobe Illustrator 19.0.0, SVG Export Plug-In . SVG Version: 6.00 Build 0)  -->
<svg version="1.1" id="objet" xmlns="http://www.w3.org/2000/svg" xmlns:xlink="http://www.w3.org/1999/xlink" x="0px" y="0px" width="75px" height="100px"
	 viewBox="0 0 512 512" style="enable-background:new 0 0 512 512;" xml:space="preserve">
<g>
	<g>
		<path d="M361.739,211.478H189.217v150.261c0,36.826-29.956,66.783-66.783,66.783c-36.826,0-66.783-29.956-66.783-66.783V249.965
			C24.278,278.181,0,318.743,0,361.739C0,444.592,67.403,512,150.261,512h211.478C445.338,512,512,443.334,512,361.739
			C512,278.886,444.597,211.478,361.739,211.478z M361.739,478.609c-64.445,0-116.87-52.429-116.87-116.87
			s52.424-116.87,116.87-116.87c5.547,0,10.962,0.522,16.307,1.273c-5.712,0.852-11.292,2.11-16.709,3.751
			c-0.196,0.047-0.386,0.097-0.58,0.15c-47.523,14.654-82.497,59.33-82.497,111.695c0,58.759,43.63,107.391,100.174,115.536
			C372.968,478.062,367.421,478.609,361.739,478.609z M311.652,361.739c0-5.303,0.55-10.473,1.5-15.504l75.424,98.649
			C345.606,441.522,311.652,405.56,311.652,361.739z M395.538,278.281c45.853,0.224,83.071,37.576,83.071,83.458
			c0,7.414-1.065,14.569-2.888,21.416L395.538,278.281z"/>
	</g>
</g>
<g>
	<g>
		<path d="M356.174,0c-78.1,0-156.003,0-233.739,0c-18.413,0-33.391,14.978-33.391,33.391v328.348
			c0,18.413,14.978,33.391,33.391,33.391c18.413,0,33.391-14.978,33.391-33.391V33.391h166.956v144.696h66.783V33.391
			C389.565,14.978,374.587,0,356.174,0z"/>
	</g>
</g>
<g>
</g>
<g>
</g>
<g>
</g>
<g>
</g>
<g>
</g>
<g>
</g>
<g>
</g>
<g>
</g>
<g>
</g>
<g>
</g>
<g>
</g>
<g>
</g>
<g>
</g>
<g>
</g>
<g>
</g>
</svg>
