<?xml version="1.0" encoding="iso-8859-1"?>
<!-- Generator: Adobe Illustrator 19.0.0, SVG Export Plug-In . SVG Version: 6.00 Build 0)  -->
<svg version="1.1" id="objet" xmlns="http://www.w3.org/2000/svg" xmlns:xlink="http://www.w3.org/1999/xlink" x="0px" y="0px" width="75px" height="100px"
	 viewBox="0 0 511.999 511.999" style="enable-background:new 0 0 511.999 511.999;" xml:space="preserve">
<g>
	<g>
		<path d="M433.162,140.166L297.39,4.393c-5.857-5.857-15.355-5.857-21.213,0L236.78,43.79l156.985,156.985l39.397-39.397
			C439.021,155.521,439.021,146.023,433.162,140.166z"/>
	</g>
</g>
<g>
	<g>
		<path d="M253.833,432.425h-24.279v-13.593h38.687c25.335,0,45.946-20.611,45.946-45.946v-92.531l58.367-58.367L215.567,65.003
			L87.899,192.671c-8.678,8.678-13.457,20.216-13.457,32.488c0,8.897,2.524,17.402,7.212,24.718
			c1.779,2.775,3.858,5.384,6.245,7.771l14.256,14.256c-4.223,4.98-6.531,11.225-6.531,17.829c0,7.379,2.873,14.316,8.091,19.534
			l11.206,11.206v52.413c0,25.335,20.611,45.946,45.946,45.946h38.686v13.593h-24.278c-35.606,0-64.574,28.968-64.574,64.574
			c0,8.284,6.716,15,15,15h177.706c8.284,0,15-6.716,15-15C318.407,461.393,289.439,432.425,253.833,432.425z M160.867,388.832
			c-8.793,0-15.946-7.153-15.946-15.946v-31.124c7.287,0.763,14.818-1.359,20.729-6.363l14.257,14.257
			c2.386,2.386,4.995,4.466,7.77,6.245c7.315,4.689,15.821,7.213,24.718,7.213c12.272,0,23.811-4.779,32.488-13.457l39.302-39.302
			v62.531h0.001c0,8.793-7.153,15.946-15.946,15.946H160.867z"/>
	</g>
</g>
<g>
</g>
<g>
</g>
<g>
</g>
<g>
</g>
<g>
</g>
<g>
</g>
<g>
</g>
<g>
</g>
<g>
</g>
<g>
</g>
<g>
</g>
<g>
</g>
<g>
</g>
<g>
</g>
<g>
</g>
</svg>
