<?xml version="1.0" encoding="iso-8859-1"?>
<!-- Generator: Adobe Illustrator 18.1.1, SVG Export Plug-In . SVG Version: 6.00 Build 0)  -->
<svg version="1.1" id="objet" xmlns="http://www.w3.org/2000/svg" xmlns:xlink="http://www.w3.org/1999/xlink" x="0px" y="0px" width="100px" height="100px"
	 viewBox="0 0 25.911 25.911" style="enable-background:new 0 0 25.911 25.911;" xml:space="preserve">
<g>
	<path style="fill:#030104;" d="M5.971,17.224l2.705,2.705L3.065,25.54c-0.628,0.628-1.189,0.448-2.171-0.534
		c-0.747-0.747-1.281-1.424-0.534-2.171L5.971,17.224z M20.964,3.964c-0.545,0.546-0.545,1.431,0,1.976
		c0.254,0.253,0.666,0.47,1.091,0.578l1.441-1.441c0.189,0.189,0.442,0.59,0.618,1.003l0.481-0.481c0.195-0.195,0.512-0.195,0.707,0
		s0.195,0.512,0,0.707l-11,11c-0.097,0.097-0.225,0.146-0.353,0.146s-0.256-0.049-0.354-0.146c-0.195-0.195-0.195-0.512,0-0.707
		l0.452-0.452c-0.402-0.172-0.791-0.416-0.985-0.603l-3.148,3.148l-2.705-2.705L23.065,0.131c0.359-0.359,1.122,0.09,1.868,0.837
		c0.747,0.747,1.228,1.477,0.841,1.867l-2.246,2.247c-0.107-0.433-0.328-0.859-0.587-1.118C22.395,3.418,21.51,3.418,20.964,3.964z
		 M17.048,13.146c-0.402-0.171-0.79-0.415-0.984-0.603l-1.538,1.539c-0.107-0.434-0.328-0.86-0.587-1.119
		c-0.546-0.546-1.431-0.546-1.977,0c-0.545,0.546-0.545,1.431,0,1.976c0.255,0.255,0.668,0.471,1.093,0.579l1.442-1.442
		c0.189,0.189,0.442,0.59,0.618,1.003L17.048,13.146z M20.048,10.146c-0.402-0.171-0.789-0.415-0.984-0.602l-1.538,1.538
		c-0.107-0.433-0.328-0.859-0.587-1.118c-0.546-0.546-1.431-0.546-1.977,0c-0.545,0.546-0.545,1.431,0,1.976
		c0.255,0.254,0.667,0.471,1.092,0.579l1.442-1.442c0.189,0.189,0.442,0.59,0.618,1.003L20.048,10.146z M20.527,8.082
		c-0.107-0.433-0.328-0.859-0.587-1.118c-0.546-0.546-1.431-0.546-1.977,0c-0.545,0.546-0.545,1.431,0,1.976
		c0.255,0.254,0.667,0.47,1.091,0.579l1.442-1.442c0.189,0.189,0.442,0.59,0.618,1.003l1.933-1.933
		c-0.401-0.171-0.789-0.414-0.983-0.602L20.527,8.082z"/>
</g>
<g>
</g>
<g>
</g>
<g>
</g>
<g>
</g>
<g>
</g>
<g>
</g>
<g>
</g>
<g>
</g>
<g>
</g>
<g>
</g>
<g>
</g>
<g>
</g>
<g>
</g>
<g>
</g>
<g>
</g>
</svg>
