<?xml version="1.0" encoding="UTF-8" standalone="no"?>
<!-- Created with Inkscape (http://www.inkscape.org/) -->

<svg
   xmlns:dc="http://purl.org/dc/elements/1.1/"
   xmlns:cc="http://creativecommons.org/ns#"
   xmlns:rdf="http://www.w3.org/1999/02/22-rdf-syntax-ns#"
   xmlns:svg="http://www.w3.org/2000/svg"
   xmlns="http://www.w3.org/2000/svg"
   xmlns:sodipodi="http://sodipodi.sourceforge.net/DTD/sodipodi-0.dtd"
   xmlns:inkscape="http://www.inkscape.org/namespaces/inkscape"
   width="200px"
   height="130px"
   viewBox="0 0 169.12285 90.600073"
   version="1.1"
   id="objet"
   inkscape:version="0.92.3 (2405546, 2018-03-11)"
   sodipodi:docname="trompette.svg">
  <defs
     id="defs8776" />
  <sodipodi:namedview
     id="base"
     pagecolor="#ffffff"
     bordercolor="#666666"
     borderopacity="1.0"
     inkscape:pageopacity="0.0"
     inkscape:pageshadow="2"
     inkscape:zoom="0.35"
     inkscape:cx="389.81376"
     inkscape:cy="26.24094"
     inkscape:document-units="mm"
     inkscape:current-layer="layer1"
     showgrid="false"
     fit-margin-top="0"
     fit-margin-left="0"
     fit-margin-right="0"
     fit-margin-bottom="0"
     inkscape:window-width="1920"
     inkscape:window-height="1017"
     inkscape:window-x="-4"
     inkscape:window-y="-4"
     inkscape:window-maximized="1" />
  <metadata
     id="metadata8779">
    <rdf:RDF>
      <cc:Work
         rdf:about="">
        <dc:format>image/svg+xml</dc:format>
        <dc:type
           rdf:resource="http://purl.org/dc/dcmitype/StillImage" />
        <dc:title></dc:title>
      </cc:Work>
    </rdf:RDF>
  </metadata>
  <g
     inkscape:label="Calque 1"
     inkscape:groupmode="layer"
     id="layer1"
     transform="translate(-2.6951103,-65.176176)">
    <g
       transform="matrix(0.40664305,0,0,0.40664305,-151.46327,-211.82907)"
       id="g9133">
      <g
         id="g9101">
        <path
           id="path9097"
           d="m 542.29999,769.20001 h 13.2 v 120.4 h -13.2 z"
           inkscape:connector-curvature="0"
           style="fill:#db8c16" />
        <path
           id="path9099"
           d="m 556.7,771.1 h -15.6 c -3,0 -5.4,-2.4 -5.4,-5.4 v 0 c 0,-3 2.4,-5.4 5.4,-5.4 h 15.6 c 3,0 5.4,2.4 5.4,5.4 v 0 c 0,2.9 -2.4,5.4 -5.4,5.4 z"
           inkscape:connector-curvature="0"
           style="fill:#db8c16" />
      </g>
      <g
         id="g9107">
        <path
           id="path9103"
           d="m 596.20001,769.20001 h 13.2 v 120.4 h -13.2 z"
           inkscape:connector-curvature="0"
           style="fill:#db8c16" />
        <path
           id="path9105"
           d="M 610.6,771.1 H 595 c -3,0 -5.4,-2.4 -5.4,-5.4 v 0 c 0,-3 2.4,-5.4 5.4,-5.4 h 15.6 c 3,0 5.4,2.4 5.4,5.4 v 0 c 0,2.9 -2.4,5.4 -5.4,5.4 z"
           inkscape:connector-curvature="0"
           style="fill:#db8c16" />
      </g>
      <g
         id="g9113">
        <path
           id="path9109"
           d="m 650.09998,769.20001 h 13.2 v 120.4 h -13.2 z"
           inkscape:connector-curvature="0"
           style="fill:#db8c16" />
        <path
           id="path9111"
           d="m 664.5,771.1 h -15.6 c -3,0 -5.4,-2.4 -5.4,-5.4 v 0 c 0,-3 2.4,-5.4 5.4,-5.4 h 15.6 c 3,0 5.4,2.4 5.4,5.4 v 0 c 0,2.9 -2.5,5.4 -5.4,5.4 z"
           inkscape:connector-curvature="0"
           style="fill:#db8c16" />
      </g>
      <g
         id="g9119">
        <path
           id="path9115"
           d="m 704,769.20001 h 13.2 v 120.4 H 704 Z"
           inkscape:connector-curvature="0"
           style="fill:#db8c16" />
        <path
           id="path9117"
           d="m 718.4,771.1 h -15.6 c -3,0 -5.4,-2.4 -5.4,-5.4 v 0 c 0,-3 2.4,-5.4 5.4,-5.4 h 15.6 c 3,0 5.4,2.4 5.4,5.4 v 0 c 0,2.9 -2.5,5.4 -5.4,5.4 z"
           inkscape:connector-curvature="0"
           style="fill:#db8c16" />
      </g>
      <g
         id="g9123">
        <path
           id="path9121"
           d="M 715.4,896 H 516.6 c -30.3,0 -54.9,-24.6 -54.9,-54.9 0,-30.3 24.6,-54.9 54.9,-54.9 h 198.8 c 30.3,0 54.9,24.6 54.9,54.9 0,30.3 -24.7,54.9 -54.9,54.9 z M 516.6,799 c -23.2,0 -42.1,18.9 -42.1,42.1 0,23.2 18.9,42.1 42.1,42.1 h 198.8 c 23.2,0 42.1,-18.9 42.1,-42.1 0,-23.2 -18.9,-42.1 -42.1,-42.1 z"
           inkscape:connector-curvature="0"
           style="fill:#db8c16" />
      </g>
      <path
         id="path9125"
         d="m 764.6,784.7 c -70,0.1 -140,-0.9 -209.9,-2.9 -29.1,-0.8 -58.7,-2 -85.9,-12.2 -27.2,-10.2 -53.7,-32.7 -60.8,-60.9 h -17.8 v 66.8 8 18 c 0,2.7 0,5.3 0,8 v 66.8 H 408 c 7.1,-28.2 33.6,-50.7 60.8,-60.9 27.2,-10.2 56.9,-11.4 85.9,-12.2 70,-2 139.9,-3 209.9,-2.9 5.1,0.4 10.2,0.8 15.3,1.2 v -1.2 -15.7 -1.2 c -5.1,0.6 -10.2,1 -15.3,1.3 z"
         inkscape:connector-curvature="0"
         style="fill:#ffb342" />
      <path
         id="path9127"
         d="m 554.7,794.5 c -29.1,0.8 -58.7,2 -85.9,12.2 -27.2,10.2 -53.7,32.7 -60.8,60.9 h -17.8 v 8.8 H 408 c 7.1,-28.2 33.6,-50.7 60.8,-60.9 27.2,-10.2 56.9,-11.4 85.9,-12.2 70,-2 139.9,-3 209.9,-2.9 5.1,0.4 10.2,0.8 15.3,1.2 v -1.2 -7.6 c -5.1,-0.4 -10.2,-0.8 -15.3,-1.2 -70,0 -140,0.9 -209.9,2.9 z"
         inkscape:connector-curvature="0"
         style="fill:#eda63d" />
      <path
         id="path9129"
         d="m 395.2,904 v 0 c -8.9,0 -16.1,-7.2 -16.1,-16.1 V 697.3 c 0,-8.9 7.2,-16.1 16.1,-16.1 v 0 c 8.9,0 16.1,7.2 16.1,16.1 v 190.5 c 0,8.9 -7.2,16.2 -16.1,16.2 z"
         inkscape:connector-curvature="0"
         style="fill:#db8c16" />
      <path
         id="path9131"
         d="m 784.8,815.9 v 0 c -5.6,0 -10.2,-4.6 -10.2,-10.2 v -26.3 c 0,-5.6 4.6,-10.2 10.2,-10.2 v 0 c 5.6,0 10.2,4.6 10.2,10.2 v 26.3 c 0,5.7 -4.5,10.2 -10.2,10.2 z"
         inkscape:connector-curvature="0"
         style="fill:#db8c16" />
    </g>
  </g>
</svg>
