<?xml version="1.0" encoding="iso-8859-1"?>
<!-- Generator: Adobe Illustrator 16.0.0, SVG Export Plug-In . SVG Version: 6.00 Build 0)  -->
<!DOCTYPE svg PUBLIC "-//W3C//DTD SVG 1.1//EN" "http://www.w3.org/Graphics/SVG/1.1/DTD/svg11.dtd">
<svg version="1.1" id="Capa_1" xmlns="http://www.w3.org/2000/svg" xmlns:xlink="http://www.w3.org/1999/xlink" x="0px" y="0px"
	 width="436.314px" height="436.313px" viewBox="0 0 436.314 436.313" style="enable-background:new 0 0 436.314 436.313;"
	 xml:space="preserve">
<g>
	<g>
		<polygon points="406.279,164.655 406.279,184.051 388.133,202.192 388.133,222.222 406.279,234.172 406.279,251.007 
			436.314,251.007 436.314,164.655 		"/>
		<path d="M346.472,182.792h-9.911v-12.511h18.659v-14.391h-55.688v14.391h18.643v12.511h-9.886v16.214
			c-11.013-0.126-22.618-0.269-34.424-0.433v-15.781h-9.898v-32.536h18.662v-14.389h-55.703v14.389h18.658v32.536h-9.89v15.192
			c-11.965-0.212-23.582-0.445-34.422-0.691V182.8h-9.895v-12.511h18.645v-14.391h-55.688v14.391h18.659V182.8h-9.908v13.363
			c-6.625-0.265-12.235-0.541-16.508-0.84C101.518,192.2,5.147,127.119,5.147,127.119c-13.745,113.877,4.389,168.31,4.389,168.31
			s90.445-44.927,130.866-57.783c-5.999,6.208-9.461,13.394-9.461,21.488c0,32.528,55.551,50.061,107.812,50.061
			c52.269,0,107.819-17.532,107.819-50.061c0-15.257-12.311-27.171-30.709-35.57c37.778-1.326,66.636-1.972,66.636-1.972v-21.902
			c0,0-14.351-0.096-36.031-0.291v-16.607H346.472z M326.555,259.134c0,12.259-34.208,30.036-87.803,30.036
			c-53.583,0-87.795-17.785-87.795-30.036s34.211-30.027,87.795-30.027C292.347,229.106,326.555,246.891,326.555,259.134z"/>
	</g>
</g>
<g>
</g>
<g>
</g>
<g>
</g>
<g>
</g>
<g>
</g>
<g>
</g>
<g>
</g>
<g>
</g>
<g>
</g>
<g>
</g>
<g>
</g>
<g>
</g>
<g>
</g>
<g>
</g>
<g>
</g>
</svg>
