<?xml version="1.0" encoding="utf-8"?>
<svg id="master-artboard" viewBox="0 0 1400 980" version="1.1" xmlns="http://www.w3.org/2000/svg" x="0px" y="0px" style="enable-background:new 0 0 1400 980;" width="1400px" height="980px">

<path d="M 0 0 H 1400 V 980 H 0 V 0 Z" class="st0" style="fill: rgb(231, 237, 238);"/>
<g>
	<path class="st1" d="M758.5,246.4c0,0-1.3-6.9-8.7-8.3c2.7-2.2,5.2-4.8,7.3-7.8c5.2-6.1,2.6-18.3-10.5-14.8&#10;&#9;&#9;c-13.1,3.5-29.7,6.5-34.4-3.1c-4.8-9.6-0.4-21.8,5.7-31.4c6.1-9.6,19.6-32.3,19.6-32.3s8.7-11.8,0-21.8c-8.7-10-32.7-0.4-47.5,0&#10;&#9;&#9;c-14.8,0.4-42.7-0.4-49.7-1.7c-7-1.3-20.1-2.2-23.1,7.9c-3.1,10,4.4,21.4,10,27c5.7,5.7,27,34.4,28.3,47.1c0,0,4.8,21.4-10.9,18.7&#10;&#9;&#9;c-8.7-1.3-16.1,0.4-10,5.2c0.1,0.1,0.7,0.5,1.7,1.2c-1.5,1-3.3,3-3.7,6.7c-0.8,6.8-13.6,84.3-13.6,84.3s1.8,2,3,0.5&#10;&#9;&#9;c1.3-1.5,14.1-84,14.1-84s0.9-4.2,3.7-5.3c4.9,2.9,12.9,7.1,23.2,10.8c-2,1.5-4.9,4.8-5.2,11.2c-0.5,10.1-8.1,113.8-8.1,113.8&#10;&#9;&#9;s1.3,3.5,4.8,1.5c0.2-4.5,7.3-115,7.3-115s-0.9-8.5,7.8-9.3c13.2,3.9,29.3,6.4,46.9,4.2c0,0,6.8-0.7,15.3-3.7l9,59.5l3.8-0.3&#10;&#9;&#9;l-8.8-60.8c3.2-1.4,6.5-3.1,9.7-5.2c3.1-0.5,8-0.1,9.4,6.2c2,9.6,21.2,106.5,21.2,106.5h4.8L758.5,246.4z" style="fill: rgb(37, 55, 70);"/>
</g>
<g>
	<g>
		<path d="M 1199.699951171875 191 L 1034.9000244140625 130.39999389648438 L 1034.9000244140625 372 L 1199.699951171875 372 Z" class="st1" style="fill: rgb(37, 55, 70);"/>
	</g>
	<g>
		<path d="M 1034.9000244140625 216.60000610351562 L 918.5 247.1999969482422 L 918.5 372 L 1034.9000244140625 372 Z" class="st1" style="fill: rgb(37, 55, 70);"/>
	</g>
	<g>
		
			<path d="M 1005.299988 157.800003 H 1223.899994 V 161.800003 H 1005.299988 V 157.800003 Z" transform="matrix(0.9384 0.3455 -0.3455 0.9384 123.8255 -375.2409)" class="st1" style="fill: rgb(37, 55, 70);"/>
	</g>
	<g>
		<path d="M 976.700012 279.100006 L 976.700012 279.100006" class="st0" style="fill: rgb(231, 237, 238);"/>
		<path class="st0" d="M976.7,279.1" style="fill: rgb(231, 237, 238);"/>
	</g>
	<g>
		<path d="M 1081.300049 267.200012 L 1081.300049 267.200012 L 1093 267.200012" class="st0" style="fill: rgb(231, 237, 238);"/>
		<path d="M 1081.300049 265.700012 H 1093.000049 V 268.700012 H 1081.300049 V 265.700012 Z" class="st0" style="fill: rgb(231, 237, 238);"/>
	</g>
	<g>
		<path d="M 1139.800049 267.200012 L 1139.800049 267.200012 L 1151.5 267.200012" class="st0" style="fill: rgb(231, 237, 238);"/>
		<path d="M 1139.800049 265.700012 H 1151.500049 V 268.700012 H 1139.800049 V 265.700012 Z" class="st0" style="fill: rgb(231, 237, 238);"/>
	</g>
	<g>
		<path d="M 1139.800049 314 L 1139.800049 314 L 1151.5 314" class="st0" style="fill: rgb(231, 237, 238);"/>
		<path d="M 1139.800049 312.5 H 1151.500049 V 315.5 H 1139.800049 V 312.5 Z" class="st0" style="fill: rgb(231, 237, 238);"/>
	</g>
	<g>
		<path d="M 1081.300049 220.399994 L 1081.300049 220.399994 L 1093 220.399994" class="st0" style="fill: rgb(231, 237, 238);"/>
		<path d="M 1081.300049 218.899994 H 1093.000049 V 221.899994 H 1081.300049 V 218.899994 Z" class="st0" style="fill: rgb(231, 237, 238);"/>
	</g>
	<g>
		<path d="M 1139.800049 220.399994 L 1139.800049 220.399994 L 1151.5 220.399994" class="st0" style="fill: rgb(231, 237, 238);"/>
		<path d="M 1139.800049 218.899994 H 1151.500049 V 221.899994 H 1139.800049 V 218.899994 Z" class="st0" style="fill: rgb(231, 237, 238);"/>
	</g>
	<g>
		
			<path d="M 960.200012 160.5 H 964.200012 V 310.800003 H 960.200012 V 160.5 Z" transform="matrix(0.2534 0.9674 -0.9674 0.2534 946.2477 -754.8538)" class="st1" style="fill: rgb(37, 55, 70);"/>
	</g>
	<g>
		<path d="M 1082.099976 313.799988 H 1105.499975 V 371.999989 H 1082.099976 V 313.799988 Z" class="st0" style="fill: rgb(231, 237, 238);"/>
		<path class="st0" d="M1106,372.5h-24.4v-59.2h24.4V372.5z M1082.6,371.5h22.4v-57.2h-22.4V371.5z" style="fill: rgb(231, 237, 238);"/>
	</g>
	<g>
		<path d="M 941.599976 313.799988 H 1011.799973 V 371.999989 H 941.599976 V 313.799988 Z" class="st0" style="fill: rgb(231, 237, 238);"/>
		<path class="st0" d="M1012.3,372.5h-71.2v-59.2h71.2V372.5z M942.1,371.5h69.2v-57.2h-69.2V371.5z" style="fill: rgb(231, 237, 238);"/>
	</g>
</g>
<g>
	<path class="st1" d="M288.7,615.7c17.3,0.9,33.5-1.1,46.4-2.7c12.9-1.6,25.3-3.2,33.9,11.1c6,9.9,12.4,26.7,14.2,34.8&#10;&#9;&#9;c1.8,8.1,4.3,21-7.7,28.3c-8.8,5.3-32.1,8.6-42.3,9.5c-0.2,6.1-1.1,24.9-1.4,30.8c6.1-0.2,15.2-1.1,22.8-2.5&#10;&#9;&#9;c8.4-3.8,11.9-6.6,16-8.9c4.1-2.3,11.8-5.6,26.5-5.4c14.7,0.2,26.8,0,34.7,0.3c9.7,0.3,18.3,3.9,13.7,12&#10;&#9;&#9;c-3.4,6.1-12.3,10.6-22.4,13.1c3.2,2.9,4,6.3,6,15.3c2,9,15.2,75.5,16.5,82.8l-4.1,1.1l-5.9-3.2c-2.5-9-21.9-78.1-23.3-83&#10;&#9;&#9;s-7.9-10.6-13.7-9.7c0,0-29.9,3.8-38.1,4.9l-1.6,1.8c5.7,0.9,15.5,4.6,15.5,12.9c0,9.2,0.5,45.9,0.5,45.9l-4.5,0.7l-4.3-4.3&#10;&#9;&#9;c-1.1-10.4-5.7-45.5-6-47.9c-0.2-1.7-1.1-2.3-3.2-1.9c-2,0.3-23.1,3.7-27.6,4.4c-1.4,1.7-2.4,6.9-3.1,13.8&#10;&#9;&#9;c-0.4,4.6-10.4,91.4-10.4,91.4L312,862l-4.1-4.5c0,0,4.7-82.8,5-87.7c0.3-5.3,0.6-9.4,1.4-11.1c0,0-14.9,2.2-19.7,3.2&#10;&#9;&#9;c-9.3,1.8-14.5,5.5-17.8,16.2c-2.6,8.5-15.3,48.5-15.3,48.5l-3.8,0.7l-3.6-3.8c0,0,8.1-41.4,10.2-50.7c2-9.3,4.7-15.6,14.9-18.3&#10;&#9;&#9;c7.3-2,14.7-3.6,19.6-4.7c-5.2-5-7-9.8-6.6-14.8c-5-1.4-22-4.7-29.1-6.9c-4.4-1.4-2.5-5,0.7-4.3c3.2,0.7,21.7,3.4,29.4,3.6&#10;&#9;&#9;c0.7-4.7,2.7-19.8,3.8-27.3c-3.1,0.1-8.8,0.3-14.7-0.1c-9.2-0.6-18.9-6.9-20.4-21.7c-1.2-12.3-0.9-38,1.6-48.8&#10;&#9;&#9;C266,619.1,273.7,614.9,288.7,615.7z" style="fill: rgb(37, 55, 70);"/>
</g>
<g>
	<g>
		<path class="st1" d="M699.2,786.1h-125c-1.9,0-3.5-1.6-3.5-3.5V738c0-1.9,1.6-3.5,3.5-3.5h125c1.9,0,3.5,1.6,3.5,3.5v44.6&#10;&#9;&#9;&#9;C702.7,784.6,701.1,786.1,699.2,786.1z M577.7,779.1h118v-37.6h-118V779.1z" style="fill: rgb(37, 55, 70);"/>
	</g>
	<g>
		<path class="st1" d="M824.2,741.5h-250c-1.9,0-3.5-1.6-3.5-3.5v-26.8c0-1.9,1.6-3.5,3.5-3.5h250c1.9,0,3.5,1.6,3.5,3.5V738&#10;&#9;&#9;&#9;C827.7,739.9,826.1,741.5,824.2,741.5z M577.7,734.5h243v-19.8h-243V734.5z" style="fill: rgb(37, 55, 70);"/>
	</g>
	<g>
		<path class="st1" d="M574.2,811.8c-1.9,0-3.5-1.6-3.5-3.5v-25.7c0-1.9,1.6-3.5,3.5-3.5s3.5,1.6,3.5,3.5v25.7&#10;&#9;&#9;&#9;C577.7,810.2,576.1,811.8,574.2,811.8z" style="fill: rgb(37, 55, 70);"/>
	</g>
	<g>
		<path class="st1" d="M824.2,811.8c-1.9,0-3.5-1.6-3.5-3.5v-25.7c0-1.9,1.6-3.5,3.5-3.5s3.5,1.6,3.5,3.5v25.7&#10;&#9;&#9;&#9;C827.7,810.2,826.1,811.8,824.2,811.8z" style="fill: rgb(37, 55, 70);"/>
	</g>
	<g>
		<path class="st1" d="M649.9,759.4h-17.5c-1.9,0-3.5-1.6-3.5-3.5s1.6-3.5,3.5-3.5h17.5c1.9,0,3.5,1.6,3.5,3.5&#10;&#9;&#9;&#9;S651.8,759.4,649.9,759.4z" style="fill: rgb(37, 55, 70);"/>
	</g>
	<g>
		<path class="st1" d="M824.2,786.1h-125c-1.9,0-3.5-1.6-3.5-3.5V738c0-1.9,1.6-3.5,3.5-3.5h125c1.9,0,3.5,1.6,3.5,3.5v44.6&#10;&#9;&#9;&#9;C827.7,784.6,826.1,786.1,824.2,786.1z M702.7,779.1h118v-37.6h-118V779.1z" style="fill: rgb(37, 55, 70);"/>
	</g>
	<g>
		<path class="st1" d="M766,759.4h-17.5c-1.9,0-3.5-1.6-3.5-3.5s1.6-3.5,3.5-3.5H766c1.9,0,3.5,1.6,3.5,3.5S767.9,759.4,766,759.4z" style="fill: rgb(37, 55, 70);"/>
	</g>
</g>
<g>
	<path class="st1" d="M247.9,142.2c9.8,39.6,45.9,126.7,56.9,145C279.5,259.6,252.5,191.4,247.9,142.2z M322.3,306.2&#10;&#9;&#9;c4.1-3.1,13.1-11.5,16.6-14.5c2.7,2.1,9.3,7.1,12,9c-4.8,3.4-13.1,9.4-18.9,14.2C328.8,312.6,324.8,308.9,322.3,306.2z&#10;&#9;&#9; M467.7,366.8c-52-3-104-25.6-132.2-48.9c3.9-3.5,14.4-11,19.5-14.5c16.9,11.1,49.6,24.1,78.6,26.4v-1.9l-2.3-2.6&#10;&#9;&#9;c-32.4-4.7-57.6-16.2-71.1-25.1c26.7-17.3,74.8-32,101.3-37.5c2.1-0.4,1.9-0.7,1.4-2.9c-0.3-1.3-2.7-2.5-6.2-3c0.7-1.9,4.6-2.9,4-4&#10;&#9;&#9;c-1.8-3.6-4.1-8.8-3.5-13c0.3-2.6,0.3-4-3.1-5.5c-3.5-1.6-15.1-4.2-29.8-3.4c-16.3,1-38.7,6.6-52.4,13.4&#10;&#9;&#9;c-11.7,0.4-28.7,4.7-39.3,8.5c-1.6-9.8-5.5-20.1-11.5-26.4c-0.2-9.9-3.2-19.5-9.5-25.9c-0.4-8.5-5.4-18.5-10-24&#10;&#9;&#9;c-1.2-13.1-5.6-22.8-14.6-31.4c-4.5-4.3-12-14.8-14.4-19.5c-1.7-3.3-2.8-4.1-7-2.9c-2.6,0.7-6.8,1.9-11.6,2.5&#10;&#9;&#9;c-3.9,0.5-3.8,3.2-3.3,6.9c-1.6,0.4-2.9,0.4-4.2,0.6c-0.1-1.2-0.3-2.5-0.4-3.8c-0.1-1-4.6-0.5-4.6,0.6&#10;&#9;&#9;c-0.4,17.3,6.7,57.6,20.4,93.1c13.7,35.5,30.5,62.8,52.4,84.4c-8.8,7.4-17.6,11.6-26.7,13.2l-2.8,2.4v1.9&#10;&#9;&#9;c14.8-1.3,25.8-9.3,32.6-14.7c4,4,7,6.6,10,8.8c-8.9,7.3-25.7,22-41.8,30.7c-15.4,8.3-30.5,14.5-51.3,14.8l-3.9,3.4v2.4&#10;&#9;&#9;c18.3,0.2,31.6-4,42.2-8.5c22.4-9.4,44-28.2,58.2-39.7c17.2,14.6,76.2,49.6,139.6,50.5v-2L467.7,366.8z M309,293&#10;&#9;&#9;c2.3,1.1,5.2,0.2,6.3,0s16.2-3.5,21.8-5.2L319,303.4C318.3,302.9,309.6,294.5,309,293z M343,288.4l4.5-3.1l90.1-21.9&#10;&#9;&#9;c-14.6,4.4-38.7,12.8-43.1,14.7c-4.4,1.8-37,16.3-38.8,19.5L343,288.4z" style="fill: rgb(37, 55, 70);"/>
</g>
<g>
	<path class="st1" d="M1152.8,651.2c-3.6-0.6-4.8-4.8-7.2-13.2c-2.4-8.4-9-25.2-25.2-25.8c-16.2-0.6-31.8,4.8-51.7,19.8&#10;&#9;&#9;c-19.8,15-34.9,14.4-34.9,14.4s-30,1.2-48.7,1.2c-18.6,0-16.2,13.8-16.2,13.8l-9.6,37.3c-1.2,4.2-4.2,16.2,10.8,21&#10;&#9;&#9;c9.2,3,30.3,4.5,47.2,5.3l-64.4,113.6l-0.5,7H949v3.8h7v-3.6h-2.6l1.2-5.4l77.1-74.3l13.5,56.1l-0.7,11.7h-2.2c0,2.5,0,2.5,0,2.5h8&#10;&#9;&#9;v-2.5h-2.7v-9l10.5,24.7v10h-2.2v2.5h8v-2.7h-2.7l0.2-10.2l9.2-79.3l67.1,67.3l0.2,6h-2.2v3.2h7v-3h-2.2v-7l-54.6-103.2h-4.5v-3.7&#10;&#9;&#9;c0.6-0.9,1.3-1.8,2-2.5c45.7-4.2,40.3-32.4,43.3-45.1c3-12.6,6.6-26.4,6.6-26.4s10.8-0.6,17.4-0.6&#10;&#9;&#9;C1157.1,654.8,1156.5,651.8,1152.8,651.2z M958.7,832.9l51.9-89.8l18.9,23.2L958.7,832.9z M1031.5,765.3l-19.5-23.9l8.3-16.2&#10;&#9;&#9;c9.3,0.4,17,0.5,20.1,0.5c4,0,6.6,0.9,8.7,1.6v2.1l1.7,1.7v7.2l-14.7,26.9H1031.5z M1050.7,750.3l-0.7,15l-6.5-0.5L1050.7,750.3z&#10;&#9;&#9; M1040.7,765.3h-2.2l11.5-22.9l0.3,4L1040.7,765.3z M1047,817.7c0,0-11.5-46.4-12.2-47.1h14L1047,817.7z M1051.2,770.5l4-0.5&#10;&#9;&#9;l0.8,25.9l-7.2,23.7L1051.2,770.5z M1051.7,765.6l1.2-20.5l1.2,20.5H1051.7z M1049.2,822.4l6.7-20l1.5,40.2L1049.2,822.4z&#10;&#9;&#9; M1056.4,765.3c0,0,0-17,0-16.2c0,0.7,4.5,16.2,4.5,16.2H1056.4z M1060,840.3c0,0.6-0.1,1-0.1,1L1060,840.3c0.3-8.6-1.6-70-1.6-70&#10;&#9;&#9;h9.2L1060,840.3z M1133.3,829.7l-61.4-62.1l16.2-22.9L1133.3,829.7z M1084.1,734.6l2.5,7.7l-17.7,22.7h-5.7l-7.2-22.2v-15.7&#10;&#9;&#9;c0.4-0.2,0.9-0.5,1.4-0.8c0,0,0,0,6.6-0.6c5.6-0.5,9.1,1.6,11.5,4.1v4.8H1084.1z M1105.1,655.7c-5.9,1.6-8.8,8.2-10.5,13&#10;&#9;&#9;c-1.7,4.6-11.4,31.2-11.4,31.2s-1.8,12.9-24,17.4c-21,4.3-57.1-4.2-57.1-4.2s65.5,7.8,74.5-11.4s15-36.7,15-36.7s2.1-10.8,18-12&#10;&#9;&#9;c17.4-1.3,31.3-1.8,31.3-1.8S1111.4,654,1105.1,655.7z" style="fill: rgb(37, 55, 70);"/>
</g>
</svg>