<?xml version="1.0" encoding="UTF-8" standalone="no"?>
<!-- Created with Inkscape (http://www.inkscape.org/) -->

<svg
   xmlns:dc="http://purl.org/dc/elements/1.1/"
   xmlns:cc="http://creativecommons.org/ns#"
   xmlns:rdf="http://www.w3.org/1999/02/22-rdf-syntax-ns#"
   xmlns:svg="http://www.w3.org/2000/svg"
   xmlns="http://www.w3.org/2000/svg"
   xmlns:sodipodi="http://sodipodi.sourceforge.net/DTD/sodipodi-0.dtd"
   xmlns:inkscape="http://www.inkscape.org/namespaces/inkscape"
   width="305.83624mm"
   height="107.92307mm"
   viewBox="0 0 305.83625 107.92306"
   version="1.1"
   id="svg8782"
   inkscape:version="0.92.3 (2405546, 2018-03-11)"
   sodipodi:docname="violon.svg">
  <defs
     id="defs8776" />
  <sodipodi:namedview
     id="base"
     pagecolor="#ffffff"
     bordercolor="#666666"
     borderopacity="1.0"
     inkscape:pageopacity="0.0"
     inkscape:pageshadow="2"
     inkscape:zoom="0.35"
     inkscape:cx="1416.3434"
     inkscape:cy="-341.23853"
     inkscape:document-units="mm"
     inkscape:current-layer="layer1"
     showgrid="false"
     fit-margin-top="0"
     fit-margin-left="0"
     fit-margin-right="0"
     fit-margin-bottom="0"
     inkscape:window-width="1920"
     inkscape:window-height="1017"
     inkscape:window-x="-4"
     inkscape:window-y="-4"
     inkscape:window-maximized="1" />
  <metadata
     id="metadata8779">
    <rdf:RDF>
      <cc:Work
         rdf:about="">
        <dc:format>image/svg+xml</dc:format>
        <dc:type
           rdf:resource="http://purl.org/dc/dcmitype/StillImage" />
        <dc:title></dc:title>
      </cc:Work>
    </rdf:RDF>
  </metadata>
  <g
     inkscape:label="Calque 1"
     inkscape:groupmode="layer"
     id="layer1"
     transform="translate(268.90754,49.375758)">
    <g
       transform="matrix(0.40664305,0,0,0.40664305,-287.16581,-77.759443)"
       id="g9217">
      <g
         id="g9165">
        <path
           id="path9161"
           d="m 733.4,205.6 h -6.7 c -4.3,0 -7.9,-3.5 -7.9,-7.9 V 191 c 0,-4.3 3.5,-7.9 7.9,-7.9 h 6.7 c 4.3,0 7.9,3.5 7.9,7.9 v 6.7 c 0,4.4 -3.6,7.9 -7.9,7.9 z"
           inkscape:connector-curvature="0"
           style="fill:#c29349" />
        <path
           id="path9163"
           d="m 771,205.6 h -6.7 c -4.3,0 -7.9,-3.5 -7.9,-7.9 V 191 c 0,-4.3 3.5,-7.9 7.9,-7.9 h 6.7 c 4.3,0 7.9,3.5 7.9,7.9 v 6.7 c -0.1,4.4 -3.6,7.9 -7.9,7.9 z"
           inkscape:connector-curvature="0"
           style="fill:#c29349" />
      </g>
      <g
         id="g9171">
        <path
           id="path9167"
           d="m 733.4,266.9 h -6.7 c -4.3,0 -7.9,-3.5 -7.9,-7.9 v -6.7 c 0,-4.3 3.5,-7.9 7.9,-7.9 h 6.7 c 4.3,0 7.9,3.5 7.9,7.9 v 6.7 c 0,4.3 -3.6,7.9 -7.9,7.9 z"
           inkscape:connector-curvature="0"
           style="fill:#c29349" />
        <path
           id="path9169"
           d="m 771,266.9 h -6.7 c -4.3,0 -7.9,-3.5 -7.9,-7.9 v -6.7 c 0,-4.3 3.5,-7.9 7.9,-7.9 h 6.7 c 4.3,0 7.9,3.5 7.9,7.9 v 6.7 c -0.1,4.3 -3.6,7.9 -7.9,7.9 z"
           inkscape:connector-curvature="0"
           style="fill:#c29349" />
      </g>
      <path
         id="path9173"
         d="m 456.5,197.9 c -1.7,-40.4 -41.6,-72.6 -90.6,-72.6 l -44.1,-0.4 c -0.4,31.2 -37.4,34 -77.5,34 -40.4,0 -73.1,-7.7 -73.1,-41.2 0,-0.2 0,-0.4 0,-0.6 l -29.7,-0.3 c -53.4,0 -96.6,35.9 -96.6,80.2 v 1 56 1 c 0,44.3 43.3,80.2 96.6,80.2 l 29.7,-0.3 c 0,-0.2 0,-0.4 0,-0.6 0,-33.5 32.7,-41.2 73.1,-41.2 40.1,0 77.1,2.8 77.5,34 l 44.1,-0.4 c 49,0 88.9,-32.3 90.6,-72.6 h 0.1 v -2.7 -50.9 z"
         inkscape:connector-curvature="0"
         style="fill:#f9bd5e" />
      <path
         id="path9175"
         d="m 718.79999,243.89999 -401.69998,8 v -51.79998 l 401.69998,8 z"
         inkscape:connector-curvature="0"
         style="fill:#b88b45" />
      <path
         id="path9177"
         d="m 64.699997,243.89999 83.199993,8 v -51.79998 l -83.199993,8 z"
         inkscape:connector-curvature="0"
         style="fill:#b88b45" />
      <g
         id="g9183">
        <path
           id="path9179"
           d="m 159.7,161.6 c 4.5,2.1 8.7,5 12.9,7.6 10.6,6.4 19.1,15.8 30.1,21.6 9.3,5 21.3,7.6 30.9,1.5 3.5,-2.3 6.4,-5.8 6.8,-10.1 0.4,-4.2 -1.7,-6.8 -4.6,-9.5 -1.2,-1.1 -3.4,0.4 -2.4,1.8 2,2.9 -1.9,6.3 -4.3,7.1 -3,1 -6.7,0.6 -9.8,-0.2 -7.1,-1.7 -12.9,-6 -18.7,-10.3 -6,-4.5 -12.2,-8.7 -18.7,-12.2 -6.8,-3.7 -13.9,-5.9 -21.3,-8.3 -5.7,-1.8 -12.2,-2.7 -17,1.7 -4,3.6 -4.5,9.5 -1.2,13.7 5.8,7.6 17.1,2.5 17.3,-4.4 z m -8.9,-2.1 c -0.3,0.4 -0.6,0.7 -0.9,0.5 0,0 0.5,-0.3 0.9,-0.5 z"
           inkscape:connector-curvature="0"
           style="fill:#8c6a35" />
        <path
           id="path9181"
           d="m 233.6,259.8 c -9.5,-6.1 -21.5,-3.5 -30.9,1.5 -10.9,5.9 -19.5,15.2 -30.1,21.6 -4.2,2.5 -8.4,5.5 -12.9,7.6 -0.2,-7 -11.5,-12 -17.3,-4.6 -3.3,4.3 -2.8,10.1 1.2,13.7 4.8,4.4 11.3,3.5 17,1.7 7.4,-2.4 14.5,-4.6 21.3,-8.3 6.6,-3.5 12.8,-7.7 18.7,-12.2 5.8,-4.3 11.5,-8.6 18.7,-10.3 3.1,-0.7 6.8,-1.2 9.8,-0.2 2.4,0.8 6.3,4.2 4.3,7.1 -1,1.5 1.2,3 2.4,1.8 3,-2.7 5,-5.3 4.6,-9.5 -0.4,-4.1 -3.3,-7.7 -6.8,-9.9 z M 149.9,292 c 0.2,-0.2 0.5,0 0.9,0.5 -0.4,-0.2 -0.9,-0.4 -0.9,-0.5 z"
           inkscape:connector-curvature="0"
           style="fill:#8c6a35" />
      </g>
      <g
         id="g9201">
        <g
           id="g9187">
          <path
             id="path9185"
             transform="matrix(0.0053169,-1,1,0.0053169,215.2406,647.398)"
             d="m 431.39999,-100.7 h 3.3 v 632.29999 h -3.3 z"
             inkscape:connector-curvature="0"
             style="fill:#6b5129" />
        </g>
        <g
           id="g9191">
          <path
             id="path9189"
             transform="matrix(0.00177232,-1,1,0.00177232,209.7661,655.1617)"
             d="m 431.39999,-93.699997 h 3.3 V 538.59999 h -3.3 z"
             inkscape:connector-curvature="0"
             style="fill:#6b5129" />
        </g>
        <g
           id="g9195">
          <path
             id="path9193"
             transform="matrix(1,-0.00196862,0.00196862,1,-0.451,0.8529)"
             d="m 116.9,227.89999 h 632.29999 v 3.3 H 116.9 Z"
             inkscape:connector-curvature="0"
             style="fill:#6b5129" />
        </g>
        <g
           id="g9199">
          <path
             id="path9197"
             transform="matrix(1,-0.00522909,0.00522909,1,-1.2309,2.2677)"
             d="m 116.9,234.89999 h 632.29999 v 3.3 H 116.9 Z"
             inkscape:connector-curvature="0"
             style="fill:#6b5129" />
        </g>
      </g>
      <path
         id="path9203"
         d="m 775.1,255.6 h -51.7 c -12.1,0 -21.9,-9.8 -21.9,-21.9 v -15.5 c 0,-12.1 9.8,-21.9 21.9,-21.9 h 51.7 c 12.1,0 21.9,9.8 21.9,21.9 v 15.5 c 0,12.2 -9.8,21.9 -21.9,21.9 z"
         inkscape:connector-curvature="0"
         style="fill:#f9bd5e" />
      <g
         id="g9215">
        <path
           id="path9205"
           d="m 131.3,88.900002 h 546.29999 v 4.599999 H 131.3 Z"
           inkscape:connector-curvature="0"
           style="fill:#f9d498" />
        <g
           id="g9211">
          <path
             id="path9207"
             d="m 126.5,76.300003 h 17.3 v 17.299999 h -17.3 z"
             inkscape:connector-curvature="0"
             style="fill:#bf9148" />
          <path
             id="path9209"
             d="m 663.20001,76.300003 h 17.3 v 17.299999 h -17.3 z"
             inkscape:connector-curvature="0"
             style="fill:#bf9148" />
        </g>
        <path
           id="path9213"
           d="M 680.2,82.8 H 128.6 c -3.6,0 -6.5,-2.9 -6.5,-6.5 v 0 c 0,-3.6 2.9,-6.5 6.5,-6.5 h 551.6 c 3.6,0 6.5,2.9 6.5,6.5 v 0 c 0,3.6 -2.9,6.5 -6.5,6.5 z"
           inkscape:connector-curvature="0"
           style="fill:#f9bd5e" />
      </g>
    </g>
  </g>
</svg>
